<?xml version="1.0" encoding="utf-8"?>
<!-- Generator: Adobe Illustrator 14.0.0, SVG Export Plug-In . SVG Version: 6.00 Build 43363)  -->
<!DOCTYPE svg PUBLIC "-//W3C//DTD SVG 1.1//EN" "http://www.w3.org/Graphics/SVG/1.1/DTD/svg11.dtd">
<svg version="1.1" id="Layer_1" xmlns:svg="http://www.w3.org/2000/svg"
	 xmlns="http://www.w3.org/2000/svg" xmlns:xlink="http://www.w3.org/1999/xlink" x="0px" y="0px" width="633px" height="444.355px"
	 viewBox="0 0 633 444.355" enable-background="new 0 0 633 444.355" xml:space="preserve">
<line id="line3" fill="none" stroke="#868686" stroke-width="1.68" stroke-linejoin="round" stroke-miterlimit="10" x1="51.22" y1="12.237" x2="552.578" y2="12.237"/>
<line id="line5" fill="none" stroke="#868686" stroke-width="1.68" stroke-linejoin="round" stroke-miterlimit="10" x1="51.22" y1="76.317" x2="552.578" y2="76.317"/>
<line id="line7" fill="none" stroke="#868686" stroke-width="1.68" stroke-linejoin="round" stroke-miterlimit="10" x1="51.22" y1="140.277" x2="552.578" y2="140.277"/>
<line id="line9" fill="none" stroke="#868686" stroke-width="1.68" stroke-linejoin="round" stroke-miterlimit="10" x1="51.22" y1="204.237" x2="552.578" y2="204.237"/>
<line id="line11" fill="none" stroke="#868686" stroke-width="1.68" stroke-linejoin="round" stroke-miterlimit="10" x1="51.22" y1="268.317" x2="552.578" y2="268.317"/>
<line id="line13" fill="none" stroke="#868686" stroke-width="1.68" stroke-linejoin="round" stroke-miterlimit="10" x1="51.22" y1="332.277" x2="552.578" y2="332.277"/>
<rect id="rect15" x="336.1" y="268.317" fill="#4F81BD" width="45.6" height="127.92"/>
<rect id="rect17" x="85.419" y="332.277" fill="#4F81BD" width="45.6" height="63.96"/>
<rect id="rect19" x="381.699" y="204.237" fill="#C0504D" width="45.602" height="192"/>
<rect id="rect21" x="131.02" y="268.317" fill="#C0504D" width="45.6" height="127.92"/>
<rect id="rect23" x="427.301" y="140.277" fill="#9BBB59" width="45.479" height="255.959"/>
<rect id="rect25" x="176.62" y="204.237" fill="#9BBB59" width="45.6" height="192"/>
<rect id="rect27" x="472.779" y="76.317" fill="#8064A2" width="45.602" height="319.919"/>
<rect id="rect29" x="222.22" y="140.277" fill="#8064A2" width="45.48" height="255.959"/>
<line id="line31" fill="none" stroke="#868686" stroke-width="1.68" stroke-linejoin="round" stroke-miterlimit="10" x1="51.22" y1="396.237" x2="51.22" y2="12.237"/>
<path id="path33" fill="none" stroke="#868686" stroke-width="1.68" stroke-linejoin="round" stroke-miterlimit="10" d="
	M43.899,12.237h7.32 M43.899,76.317h7.32 M43.899,140.277h7.32 M43.899,204.237h7.32 M43.899,268.317h7.32 M43.899,332.277h7.32
	 M43.899,396.237h7.32"/>
<line id="line35" fill="none" stroke="#868686" stroke-width="1.68" stroke-linejoin="round" stroke-miterlimit="10" x1="51.22" y1="396.237" x2="552.578" y2="396.237"/>
<g id="text37" enable-background="new    ">
	<path d="M28.942,395.573c0,1.121-0.088,2.144-0.265,3.069c-0.177,0.925-0.47,1.721-0.88,2.387s-0.946,1.182-1.608,1.546
		c-0.662,0.365-1.479,0.548-2.449,0.548c-0.918,0-1.691-0.164-2.319-0.491c-0.628-0.327-1.134-0.809-1.518-1.444
		c-0.384-0.636-0.657-1.418-0.818-2.348c-0.162-0.929-0.243-1.995-0.243-3.199c0-1.113,0.09-2.135,0.271-3.064
		c0.181-0.929,0.474-1.727,0.88-2.392c0.407-0.666,0.94-1.182,1.603-1.547c0.662-0.364,1.475-0.547,2.438-0.547
		c0.925,0,1.702,0.164,2.33,0.491c0.628,0.327,1.134,0.809,1.518,1.444s0.656,1.418,0.818,2.347
		C28.862,393.302,28.942,394.369,28.942,395.573z M26.957,395.708c0-0.729-0.027-1.384-0.079-1.963
		c-0.053-0.58-0.13-1.091-0.231-1.535s-0.233-0.825-0.395-1.146c-0.162-0.319-0.355-0.583-0.581-0.79s-0.483-0.357-0.773-0.451
		c-0.29-0.094-0.615-0.142-0.977-0.142c-0.639,0-1.158,0.151-1.557,0.452s-0.713,0.715-0.942,1.241s-0.386,1.144-0.468,1.851
		c-0.083,0.707-0.124,1.467-0.124,2.279c0,1.091,0.056,2.019,0.169,2.782c0.113,0.764,0.292,1.386,0.536,1.867
		s0.557,0.832,0.937,1.05c0.379,0.219,0.84,0.327,1.382,0.327c0.421,0,0.792-0.067,1.111-0.203s0.594-0.329,0.824-0.581
		s0.419-0.555,0.57-0.908c0.15-0.354,0.271-0.745,0.361-1.174s0.152-0.894,0.187-1.394C26.939,396.771,26.957,396.25,26.957,395.708
		z"/>
</g>
<g enable-background="new    ">
	<path d="M16.777,338.13c0,0.144-0.011,0.264-0.034,0.361c-0.022,0.098-0.052,0.177-0.09,0.237c-0.038,0.06-0.081,0.104-0.13,0.13
		c-0.049,0.026-0.1,0.039-0.152,0.039H8.742c-0.053,0-0.102-0.013-0.146-0.039c-0.045-0.026-0.089-0.07-0.13-0.13
		c-0.042-0.061-0.073-0.14-0.096-0.237c-0.022-0.098-0.034-0.218-0.034-0.361c0-0.135,0.011-0.252,0.034-0.35
		c0.023-0.098,0.051-0.179,0.085-0.242c0.034-0.064,0.075-0.113,0.124-0.147c0.049-0.033,0.104-0.051,0.164-0.051h3.047v-11.104
		l-2.821,1.682c-0.143,0.075-0.258,0.12-0.344,0.136c-0.086,0.015-0.156-0.002-0.208-0.051c-0.053-0.049-0.088-0.13-0.107-0.243
		c-0.019-0.112-0.028-0.256-0.028-0.429c0-0.128,0.006-0.237,0.017-0.327s0.028-0.165,0.051-0.226s0.055-0.113,0.096-0.158
		c0.041-0.045,0.096-0.09,0.164-0.136l3.363-2.155c0.03-0.022,0.068-0.041,0.113-0.057c0.045-0.015,0.102-0.029,0.169-0.045
		c0.068-0.015,0.146-0.024,0.237-0.028c0.09-0.003,0.203-0.005,0.339-0.005c0.18,0,0.331,0.007,0.451,0.022
		c0.12,0.015,0.214,0.035,0.282,0.062s0.113,0.061,0.135,0.102c0.022,0.042,0.034,0.085,0.034,0.13v12.831h2.641
		c0.06,0,0.116,0.018,0.169,0.051c0.053,0.034,0.096,0.083,0.13,0.147c0.034,0.063,0.06,0.145,0.079,0.242
		C16.767,337.878,16.777,337.996,16.777,338.13z"/>
</g>
<g enable-background="new    ">
	<path d="M28.919,331.563c0,1.121-0.088,2.144-0.265,3.069c-0.177,0.925-0.47,1.721-0.88,2.387s-0.946,1.182-1.608,1.546
		c-0.662,0.365-1.479,0.548-2.449,0.548c-0.918,0-1.691-0.164-2.319-0.491c-0.628-0.327-1.134-0.809-1.518-1.444
		c-0.384-0.636-0.657-1.418-0.818-2.348c-0.162-0.929-0.243-1.995-0.243-3.199c0-1.113,0.09-2.135,0.271-3.064
		c0.181-0.929,0.474-1.727,0.88-2.392c0.407-0.666,0.94-1.182,1.603-1.547c0.662-0.364,1.475-0.547,2.438-0.547
		c0.925,0,1.702,0.164,2.33,0.491c0.628,0.327,1.134,0.809,1.518,1.444s0.656,1.418,0.818,2.347
		C28.838,329.292,28.919,330.359,28.919,331.563z M26.933,331.698c0-0.729-0.027-1.384-0.079-1.963
		c-0.053-0.58-0.13-1.091-0.231-1.535s-0.233-0.825-0.395-1.146c-0.162-0.319-0.355-0.583-0.581-0.79s-0.483-0.357-0.773-0.451
		c-0.29-0.094-0.615-0.142-0.977-0.142c-0.639,0-1.158,0.151-1.557,0.452s-0.713,0.715-0.942,1.241s-0.386,1.144-0.468,1.851
		c-0.083,0.707-0.124,1.467-0.124,2.279c0,1.091,0.056,2.019,0.169,2.782c0.113,0.764,0.292,1.386,0.536,1.867
		s0.557,0.832,0.937,1.05c0.379,0.219,0.84,0.327,1.382,0.327c0.421,0,0.792-0.067,1.111-0.203s0.594-0.329,0.824-0.581
		s0.419-0.555,0.57-0.908c0.15-0.354,0.271-0.745,0.361-1.174s0.152-0.894,0.187-1.394C26.916,332.761,26.933,332.24,26.933,331.698
		z"/>
</g>
<g enable-background="new    ">
	<path d="M16.743,274.063c0,0.136-0.009,0.256-0.028,0.361c-0.019,0.105-0.045,0.193-0.079,0.265
		c-0.034,0.072-0.079,0.124-0.135,0.158c-0.057,0.034-0.119,0.051-0.187,0.051H8.245c-0.105,0-0.197-0.013-0.276-0.039
		s-0.147-0.07-0.203-0.13c-0.057-0.061-0.098-0.147-0.124-0.26c-0.027-0.113-0.04-0.252-0.04-0.418c0-0.15,0.006-0.282,0.018-0.395
		c0.011-0.113,0.037-0.213,0.075-0.299c0.039-0.087,0.087-0.174,0.146-0.26c0.058-0.087,0.134-0.179,0.227-0.276l2.919-3.002
		c0.674-0.692,1.215-1.313,1.622-1.862c0.407-0.549,0.721-1.05,0.942-1.501c0.221-0.451,0.366-0.861,0.436-1.229
		c0.07-0.369,0.104-0.715,0.104-1.039c0-0.323-0.054-0.63-0.163-0.919c-0.108-0.29-0.266-0.544-0.472-0.762
		c-0.206-0.219-0.464-0.392-0.774-0.52s-0.667-0.192-1.071-0.192c-0.474,0-0.899,0.064-1.275,0.192s-0.707,0.267-0.99,0.418
		c-0.283,0.15-0.52,0.289-0.71,0.417c-0.19,0.128-0.332,0.192-0.425,0.192c-0.054,0-0.103-0.016-0.146-0.046
		c-0.043-0.029-0.078-0.079-0.105-0.146c-0.027-0.067-0.048-0.158-0.064-0.271c-0.016-0.113-0.023-0.248-0.023-0.406
		c0-0.113,0.004-0.211,0.012-0.294c0.007-0.082,0.021-0.154,0.039-0.214c0.019-0.061,0.043-0.117,0.074-0.17
		c0.03-0.052,0.09-0.118,0.18-0.197c0.09-0.079,0.247-0.187,0.469-0.321c0.222-0.136,0.5-0.27,0.835-0.4
		c0.334-0.132,0.703-0.243,1.106-0.333c0.402-0.091,0.826-0.136,1.27-0.136c0.707,0,1.326,0.1,1.856,0.299s0.971,0.473,1.32,0.818
		s0.611,0.749,0.784,1.208c0.173,0.459,0.26,0.947,0.26,1.467c0,0.467-0.042,0.931-0.124,1.394
		c-0.083,0.463-0.258,0.963-0.525,1.501s-0.653,1.136-1.157,1.794c-0.504,0.659-1.174,1.417-2.009,2.274l-2.313,2.415h6.354
		c0.06,0,0.119,0.017,0.175,0.051c0.057,0.033,0.105,0.084,0.147,0.152c0.041,0.067,0.071,0.152,0.09,0.254
		C16.733,273.809,16.743,273.927,16.743,274.063z"/>
</g>
<g enable-background="new    ">
	<path d="M28.919,267.563c0,1.121-0.088,2.144-0.265,3.069c-0.177,0.925-0.47,1.721-0.88,2.387s-0.946,1.182-1.608,1.546
		c-0.662,0.365-1.479,0.548-2.449,0.548c-0.918,0-1.691-0.164-2.319-0.491c-0.628-0.327-1.134-0.809-1.518-1.444
		c-0.384-0.636-0.657-1.418-0.818-2.348c-0.162-0.929-0.243-1.995-0.243-3.199c0-1.113,0.09-2.135,0.271-3.064
		c0.181-0.929,0.474-1.727,0.88-2.392c0.407-0.666,0.94-1.182,1.603-1.547c0.662-0.364,1.475-0.547,2.438-0.547
		c0.925,0,1.702,0.164,2.33,0.491c0.628,0.327,1.134,0.809,1.518,1.444s0.656,1.418,0.818,2.347
		C28.838,265.292,28.919,266.359,28.919,267.563z M26.933,267.698c0-0.729-0.027-1.384-0.079-1.963
		c-0.053-0.58-0.13-1.091-0.231-1.535s-0.233-0.825-0.395-1.146c-0.162-0.319-0.355-0.583-0.581-0.79s-0.483-0.357-0.773-0.451
		c-0.29-0.094-0.615-0.142-0.977-0.142c-0.639,0-1.158,0.151-1.557,0.452s-0.713,0.715-0.942,1.241s-0.386,1.144-0.468,1.851
		c-0.083,0.707-0.124,1.467-0.124,2.279c0,1.091,0.056,2.019,0.169,2.782c0.113,0.764,0.292,1.386,0.536,1.867
		s0.557,0.832,0.937,1.05c0.379,0.219,0.84,0.327,1.382,0.327c0.421,0,0.792-0.067,1.111-0.203s0.594-0.329,0.824-0.581
		s0.419-0.555,0.57-0.908c0.15-0.354,0.271-0.745,0.361-1.174s0.152-0.894,0.187-1.394C26.916,268.761,26.933,268.24,26.933,267.698
		z"/>
</g>
<g enable-background="new    ">
	<path d="M16.63,206.712c0,0.67-0.117,1.273-0.35,1.812c-0.233,0.538-0.568,0.999-1.004,1.383c-0.437,0.384-0.975,0.679-1.614,0.886
		c-0.64,0.207-1.362,0.311-2.167,0.311c-0.489,0-0.946-0.04-1.371-0.119c-0.425-0.079-0.803-0.173-1.134-0.282
		c-0.332-0.108-0.606-0.222-0.824-0.338c-0.218-0.117-0.355-0.201-0.412-0.254c-0.057-0.053-0.1-0.105-0.13-0.158
		c-0.03-0.053-0.057-0.116-0.079-0.192c-0.022-0.075-0.04-0.167-0.051-0.276c-0.011-0.108-0.017-0.242-0.017-0.4
		c0-0.271,0.027-0.459,0.081-0.564c0.054-0.105,0.131-0.158,0.232-0.158c0.069,0,0.206,0.061,0.411,0.181
		c0.205,0.121,0.467,0.251,0.788,0.39c0.32,0.14,0.694,0.27,1.123,0.39s0.905,0.181,1.43,0.181c0.509,0,0.957-0.064,1.343-0.192
		c0.386-0.128,0.71-0.309,0.972-0.542c0.263-0.232,0.459-0.509,0.591-0.829c0.131-0.319,0.197-0.668,0.197-1.044
		c0-0.413-0.084-0.786-0.251-1.117s-0.412-0.616-0.734-0.857c-0.323-0.241-0.719-0.425-1.189-0.553s-1.004-0.192-1.603-0.192H9.434
		c-0.063,0-0.123-0.013-0.181-0.039s-0.109-0.069-0.152-0.13c-0.042-0.061-0.078-0.14-0.104-0.237
		c-0.027-0.098-0.041-0.226-0.041-0.384c0-0.143,0.011-0.261,0.034-0.355c0.022-0.094,0.054-0.169,0.096-0.226
		c0.041-0.057,0.088-0.098,0.141-0.124s0.113-0.039,0.181-0.039h1.275c0.497,0,0.942-0.064,1.337-0.192s0.729-0.312,1.004-0.553
		c0.274-0.241,0.485-0.528,0.632-0.863c0.147-0.335,0.22-0.709,0.22-1.123c0-0.301-0.049-0.589-0.146-0.863
		c-0.098-0.274-0.245-0.514-0.44-0.717s-0.446-0.362-0.75-0.479c-0.305-0.116-0.656-0.175-1.055-0.175
		c-0.436,0-0.837,0.065-1.202,0.197c-0.365,0.132-0.69,0.272-0.976,0.424c-0.286,0.15-0.523,0.291-0.711,0.423
		c-0.188,0.132-0.32,0.197-0.395,0.197c-0.053,0-0.1-0.009-0.141-0.028c-0.042-0.019-0.075-0.057-0.102-0.112
		c-0.026-0.057-0.045-0.136-0.057-0.237s-0.017-0.235-0.017-0.4c0-0.113,0.003-0.213,0.011-0.3c0.007-0.086,0.022-0.161,0.045-0.226
		c0.022-0.063,0.049-0.122,0.079-0.175c0.03-0.053,0.081-0.114,0.152-0.186c0.071-0.072,0.216-0.176,0.435-0.311
		c0.218-0.136,0.487-0.27,0.807-0.4c0.32-0.132,0.688-0.243,1.106-0.333c0.417-0.091,0.867-0.136,1.349-0.136
		c0.677,0,1.271,0.087,1.783,0.26c0.511,0.173,0.938,0.417,1.281,0.733c0.342,0.315,0.598,0.694,0.768,1.134
		c0.169,0.44,0.254,0.928,0.254,1.462c0,0.459-0.061,0.886-0.181,1.28c-0.121,0.396-0.297,0.745-0.53,1.05
		c-0.233,0.305-0.52,0.564-0.858,0.778c-0.338,0.215-0.73,0.363-1.174,0.446v0.022c0.504,0.053,0.965,0.179,1.383,0.378
		s0.776,0.45,1.078,0.751c0.301,0.301,0.536,0.652,0.705,1.055C16.545,205.823,16.63,206.253,16.63,206.712z"/>
</g>
<g enable-background="new    ">
	<path d="M28.919,203.553c0,1.121-0.088,2.144-0.265,3.069c-0.177,0.925-0.47,1.721-0.88,2.387s-0.946,1.182-1.608,1.546
		c-0.662,0.365-1.479,0.548-2.449,0.548c-0.918,0-1.691-0.164-2.319-0.491c-0.628-0.327-1.134-0.809-1.518-1.444
		c-0.384-0.636-0.657-1.418-0.818-2.348c-0.162-0.929-0.243-1.995-0.243-3.199c0-1.113,0.09-2.135,0.271-3.064
		c0.181-0.929,0.474-1.727,0.88-2.392c0.407-0.666,0.94-1.182,1.603-1.547c0.662-0.364,1.475-0.547,2.438-0.547
		c0.925,0,1.702,0.164,2.33,0.491c0.628,0.327,1.134,0.809,1.518,1.444s0.656,1.418,0.818,2.347
		C28.838,201.283,28.919,202.349,28.919,203.553z M26.933,203.688c0-0.729-0.027-1.384-0.079-1.963
		c-0.053-0.58-0.13-1.091-0.231-1.535s-0.233-0.825-0.395-1.146c-0.162-0.319-0.355-0.583-0.581-0.79s-0.483-0.357-0.773-0.451
		c-0.29-0.094-0.615-0.142-0.977-0.142c-0.639,0-1.158,0.151-1.557,0.452s-0.713,0.715-0.942,1.241s-0.386,1.144-0.468,1.851
		c-0.083,0.707-0.124,1.467-0.124,2.279c0,1.091,0.056,2.019,0.169,2.782c0.113,0.764,0.292,1.386,0.536,1.867
		s0.557,0.832,0.937,1.05c0.379,0.219,0.84,0.327,1.382,0.327c0.421,0,0.792-0.067,1.111-0.203s0.594-0.329,0.824-0.581
		s0.419-0.555,0.57-0.908c0.15-0.354,0.271-0.745,0.361-1.174s0.152-0.894,0.187-1.394C26.916,204.751,26.933,204.23,26.933,203.688
		z"/>
</g>
<g enable-background="new    ">
	<path d="M17.375,142.72c0,0.248-0.038,0.444-0.113,0.588c-0.076,0.143-0.181,0.214-0.316,0.214h-1.649v3.073
		c0,0.061-0.016,0.111-0.046,0.152c-0.031,0.041-0.085,0.077-0.163,0.107s-0.178,0.053-0.303,0.067
		c-0.124,0.016-0.283,0.022-0.477,0.022c-0.187,0-0.342-0.007-0.466-0.022c-0.124-0.015-0.223-0.037-0.296-0.067
		s-0.124-0.066-0.151-0.107s-0.041-0.092-0.041-0.152v-3.073h-5.98c-0.09,0-0.165-0.011-0.224-0.033
		c-0.06-0.023-0.114-0.064-0.163-0.125c-0.048-0.06-0.082-0.146-0.101-0.26c-0.019-0.112-0.028-0.26-0.028-0.44
		c0-0.143,0.003-0.271,0.011-0.384s0.022-0.217,0.045-0.311c0.022-0.095,0.052-0.185,0.089-0.271
		c0.037-0.086,0.082-0.179,0.134-0.276l5.211-8.88c0.038-0.06,0.094-0.112,0.167-0.158c0.073-0.045,0.167-0.083,0.282-0.112
		c0.115-0.03,0.257-0.051,0.426-0.063s0.369-0.017,0.599-0.017c0.253,0,0.474,0.009,0.662,0.028c0.188,0.019,0.34,0.043,0.455,0.073
		s0.204,0.069,0.265,0.118c0.062,0.049,0.092,0.107,0.092,0.175v9.332h1.649c0.128,0,0.231,0.065,0.311,0.197
		S17.375,142.449,17.375,142.72z M13.354,133.897h-0.022l-4.7,8.021h4.722V133.897z"/>
</g>
<g enable-background="new    ">
	<path d="M28.943,139.535c0,1.122-0.089,2.146-0.266,3.072c-0.177,0.927-0.471,1.723-0.881,2.39
		c-0.411,0.666-0.947,1.183-1.61,1.548s-1.479,0.548-2.451,0.548c-0.919,0-1.693-0.164-2.322-0.491
		c-0.629-0.328-1.135-0.81-1.519-1.446c-0.384-0.637-0.657-1.42-0.819-2.35c-0.162-0.931-0.243-1.998-0.243-3.203
		c0-1.114,0.09-2.137,0.271-3.067c0.181-0.93,0.475-1.728,0.881-2.395c0.407-0.666,0.941-1.183,1.604-1.548s1.476-0.548,2.44-0.548
		c0.927,0,1.704,0.164,2.333,0.491c0.629,0.328,1.135,0.811,1.52,1.446c0.384,0.637,0.657,1.42,0.819,2.35
		C28.862,137.262,28.943,138.33,28.943,139.535z M26.955,139.67c0-0.73-0.027-1.386-0.079-1.966c-0.053-0.58-0.13-1.092-0.232-1.536
		c-0.102-0.444-0.233-0.827-0.395-1.147c-0.162-0.319-0.356-0.583-0.582-0.79s-0.484-0.358-0.774-0.452s-0.616-0.142-0.977-0.142
		c-0.64,0-1.16,0.151-1.559,0.452c-0.399,0.302-0.713,0.716-0.943,1.243c-0.229,0.526-0.386,1.145-0.469,1.853
		s-0.124,1.468-0.124,2.281c0,1.093,0.056,2.021,0.169,2.785c0.113,0.765,0.292,1.388,0.537,1.869
		c0.245,0.482,0.557,0.833,0.938,1.051c0.38,0.219,0.842,0.328,1.384,0.328c0.422,0,0.792-0.068,1.113-0.204
		c0.32-0.135,0.595-0.329,0.825-0.581c0.229-0.253,0.42-0.556,0.57-0.909c0.151-0.354,0.271-0.746,0.362-1.176
		c0.09-0.429,0.152-0.894,0.186-1.395C26.938,140.734,26.955,140.212,26.955,139.67z"/>
</g>
<g enable-background="new    ">
	<path d="M16.686,78.168c0,0.783-0.132,1.479-0.396,2.09c-0.264,0.609-0.636,1.124-1.118,1.542
		c-0.482,0.418-1.057,0.736-1.723,0.954c-0.667,0.219-1.406,0.328-2.22,0.328c-0.452,0-0.881-0.032-1.288-0.097
		c-0.407-0.063-0.769-0.143-1.084-0.236c-0.316-0.095-0.576-0.187-0.78-0.277c-0.203-0.09-0.333-0.162-0.39-0.215
		s-0.096-0.102-0.119-0.146s-0.043-0.1-0.062-0.164c-0.019-0.063-0.032-0.145-0.04-0.243c-0.008-0.098-0.011-0.214-0.011-0.35
		c0-0.128,0.005-0.243,0.017-0.345c0.012-0.102,0.032-0.185,0.063-0.248c0.03-0.064,0.066-0.111,0.107-0.142
		c0.042-0.03,0.089-0.045,0.142-0.045c0.075,0,0.192,0.047,0.35,0.141c0.158,0.095,0.371,0.196,0.638,0.306
		c0.267,0.109,0.599,0.213,0.994,0.311s0.864,0.146,1.406,0.146c0.505,0,0.968-0.06,1.39-0.181c0.422-0.12,0.785-0.309,1.09-0.564
		s0.544-0.578,0.717-0.966c0.173-0.389,0.26-0.86,0.26-1.418c0-0.467-0.073-0.88-0.22-1.237s-0.373-0.655-0.678-0.893
		c-0.305-0.237-0.691-0.414-1.158-0.53c-0.467-0.117-1.024-0.176-1.672-0.176c-0.459,0-0.855,0.022-1.186,0.068
		c-0.332,0.045-0.64,0.067-0.926,0.067c-0.211,0-0.362-0.049-0.452-0.146s-0.135-0.286-0.135-0.565v-5.953
		c0-0.249,0.058-0.433,0.175-0.554c0.117-0.12,0.284-0.181,0.503-0.181h6.473c0.06,0,0.119,0.017,0.175,0.051
		c0.057,0.034,0.104,0.085,0.142,0.152c0.038,0.068,0.065,0.154,0.084,0.26c0.019,0.105,0.028,0.23,0.028,0.373
		c0,0.271-0.036,0.482-0.108,0.633c-0.072,0.15-0.173,0.226-0.303,0.226h-5.226v4.101c0.254-0.037,0.513-0.06,0.778-0.067
		c0.265-0.008,0.571-0.012,0.919-0.012c0.806,0,1.509,0.101,2.111,0.3c0.603,0.199,1.105,0.482,1.507,0.848
		c0.403,0.365,0.708,0.808,0.915,1.327C16.583,76.959,16.686,77.536,16.686,78.168z"/>
</g>
<g enable-background="new    ">
	<path d="M28.943,75.525c0,1.122-0.089,2.146-0.266,3.072c-0.177,0.927-0.471,1.723-0.881,2.39c-0.411,0.666-0.947,1.183-1.61,1.548
		s-1.479,0.548-2.451,0.548c-0.919,0-1.693-0.164-2.322-0.491c-0.629-0.328-1.135-0.81-1.519-1.446
		c-0.384-0.637-0.657-1.42-0.819-2.35c-0.162-0.931-0.243-1.998-0.243-3.203c0-1.114,0.09-2.137,0.271-3.067
		c0.181-0.93,0.475-1.728,0.881-2.395c0.407-0.666,0.941-1.183,1.604-1.548s1.476-0.548,2.44-0.548c0.927,0,1.704,0.164,2.333,0.491
		c0.629,0.328,1.135,0.811,1.52,1.446c0.384,0.637,0.657,1.42,0.819,2.35C28.862,73.252,28.943,74.32,28.943,75.525z M26.955,75.661
		c0-0.73-0.027-1.386-0.079-1.966c-0.053-0.58-0.13-1.092-0.232-1.536c-0.102-0.444-0.233-0.827-0.395-1.147
		c-0.162-0.319-0.356-0.583-0.582-0.79s-0.484-0.358-0.774-0.452s-0.616-0.142-0.977-0.142c-0.64,0-1.16,0.151-1.559,0.452
		c-0.399,0.302-0.713,0.716-0.943,1.243c-0.229,0.526-0.386,1.145-0.469,1.853s-0.124,1.468-0.124,2.281
		c0,1.093,0.056,2.021,0.169,2.785c0.113,0.765,0.292,1.388,0.537,1.869c0.245,0.482,0.557,0.833,0.938,1.051
		c0.38,0.219,0.842,0.328,1.384,0.328c0.422,0,0.792-0.068,1.113-0.204c0.32-0.135,0.595-0.329,0.825-0.581
		c0.229-0.253,0.42-0.556,0.57-0.909c0.151-0.354,0.271-0.746,0.362-1.176c0.09-0.429,0.152-0.894,0.186-1.395
		C26.938,76.724,26.955,76.203,26.955,75.661z"/>
</g>
<g enable-background="new    ">
	<path d="M17.115,14.129c0,0.64-0.098,1.259-0.293,1.856s-0.497,1.125-0.903,1.58s-0.921,0.82-1.546,1.095s-1.362,0.412-2.212,0.412
		c-0.609,0-1.147-0.076-1.614-0.227c-0.467-0.15-0.873-0.364-1.219-0.643c-0.346-0.278-0.634-0.621-0.863-1.027
		s-0.414-0.869-0.553-1.388c-0.139-0.52-0.239-1.087-0.299-1.704c-0.061-0.617-0.09-1.279-0.09-1.986
		c0-0.624,0.034-1.257,0.102-1.896c0.068-0.64,0.188-1.257,0.361-1.852c0.173-0.594,0.408-1.152,0.705-1.676
		C8.988,6.153,9.36,5.698,9.808,5.31s0.984-0.694,1.608-0.92c0.624-0.226,1.35-0.338,2.178-0.338c0.278,0,0.561,0.017,0.847,0.051
		c0.286,0.033,0.549,0.078,0.79,0.135s0.444,0.119,0.61,0.187c0.165,0.067,0.274,0.122,0.327,0.163
		c0.052,0.042,0.092,0.087,0.118,0.136s0.047,0.102,0.063,0.158c0.015,0.057,0.026,0.12,0.034,0.191
		c0.007,0.072,0.011,0.16,0.011,0.266c0,0.136-0.002,0.252-0.006,0.35c-0.003,0.098-0.019,0.177-0.045,0.237
		s-0.06,0.105-0.102,0.135c-0.042,0.03-0.096,0.046-0.164,0.046c-0.083,0-0.196-0.026-0.338-0.079
		c-0.143-0.053-0.316-0.111-0.52-0.175c-0.203-0.064-0.45-0.122-0.739-0.175c-0.29-0.053-0.626-0.079-1.01-0.079
		c-0.7,0-1.302,0.143-1.806,0.429s-0.916,0.67-1.236,1.151s-0.557,1.04-0.711,1.676s-0.243,1.3-0.265,1.991
		c0.196-0.112,0.416-0.226,0.66-0.338c0.245-0.113,0.512-0.215,0.801-0.305c0.29-0.091,0.596-0.164,0.92-0.221
		c0.323-0.057,0.669-0.084,1.038-0.084c0.79,0,1.456,0.106,1.998,0.321c0.542,0.214,0.98,0.512,1.314,0.892
		c0.335,0.38,0.574,0.827,0.717,1.343S17.115,13.528,17.115,14.129z M15.152,14.31c0-0.437-0.043-0.833-0.13-1.19
		s-0.231-0.66-0.435-0.908c-0.203-0.249-0.474-0.44-0.813-0.576s-0.756-0.203-1.252-0.203c-0.279,0-0.557,0.024-0.835,0.073
		s-0.547,0.117-0.807,0.203c-0.26,0.087-0.508,0.188-0.745,0.305c-0.237,0.117-0.453,0.243-0.649,0.378
		c0,0.971,0.063,1.783,0.187,2.438c0.124,0.654,0.305,1.179,0.542,1.574c0.237,0.395,0.532,0.677,0.886,0.846
		c0.354,0.17,0.768,0.254,1.242,0.254c0.481,0,0.899-0.09,1.252-0.271s0.647-0.423,0.88-0.728c0.233-0.305,0.404-0.647,0.514-1.027
		C15.097,15.098,15.152,14.708,15.152,14.31z"/>
</g>
<g enable-background="new    ">
	<path d="M28.919,11.523c0,1.121-0.088,2.144-0.265,3.069c-0.177,0.925-0.47,1.721-0.88,2.387s-0.946,1.182-1.608,1.546
		c-0.662,0.365-1.479,0.548-2.449,0.548c-0.918,0-1.691-0.164-2.319-0.491c-0.628-0.327-1.134-0.809-1.518-1.444
		c-0.384-0.636-0.657-1.418-0.818-2.348c-0.162-0.929-0.243-1.995-0.243-3.199c0-1.113,0.09-2.135,0.271-3.064
		c0.181-0.929,0.474-1.727,0.88-2.392c0.407-0.666,0.94-1.182,1.603-1.547c0.662-0.364,1.475-0.547,2.438-0.547
		c0.925,0,1.702,0.164,2.33,0.491c0.628,0.327,1.134,0.809,1.518,1.444s0.656,1.418,0.818,2.347
		C28.838,9.252,28.919,10.319,28.919,11.523z M26.933,11.658c0-0.729-0.027-1.384-0.079-1.963c-0.053-0.58-0.13-1.091-0.231-1.535
		s-0.233-0.825-0.395-1.146c-0.162-0.319-0.355-0.583-0.581-0.79s-0.483-0.357-0.773-0.451c-0.29-0.094-0.615-0.142-0.977-0.142
		c-0.639,0-1.158,0.151-1.557,0.452s-0.713,0.715-0.942,1.241s-0.386,1.144-0.468,1.851c-0.083,0.707-0.124,1.467-0.124,2.279
		c0,1.091,0.056,2.019,0.169,2.782c0.113,0.764,0.292,1.386,0.536,1.867s0.557,0.832,0.937,1.05c0.379,0.219,0.84,0.327,1.382,0.327
		c0.421,0,0.792-0.067,1.111-0.203s0.594-0.329,0.824-0.581s0.419-0.555,0.57-0.908c0.15-0.354,0.271-0.745,0.361-1.174
		s0.152-0.894,0.187-1.394C26.916,12.721,26.933,12.2,26.933,11.658z"/>
</g>
<g enable-background="new    ">
	<path d="M150.055,426.087c0,0.144-0.008,0.268-0.022,0.373c-0.015,0.105-0.042,0.19-0.079,0.254
		c-0.038,0.064-0.081,0.111-0.13,0.142c-0.049,0.03-0.1,0.045-0.153,0.045h-5.354v4.971h5.061c0.052,0,0.104,0.013,0.152,0.039
		s0.092,0.07,0.13,0.13c0.038,0.061,0.064,0.142,0.079,0.243s0.022,0.231,0.022,0.39c0,0.144-0.007,0.266-0.022,0.367
		s-0.042,0.185-0.079,0.249c-0.038,0.063-0.081,0.112-0.13,0.146s-0.1,0.051-0.152,0.051h-5.061v6.089
		c0,0.053-0.015,0.104-0.045,0.152c-0.03,0.05-0.083,0.087-0.158,0.113s-0.173,0.049-0.293,0.067
		c-0.121,0.02-0.279,0.028-0.475,0.028c-0.181,0-0.335-0.009-0.463-0.028c-0.128-0.019-0.23-0.041-0.305-0.067
		c-0.076-0.026-0.128-0.063-0.158-0.113c-0.03-0.049-0.045-0.1-0.045-0.152v-13.533c0-0.294,0.077-0.499,0.232-0.616
		c0.154-0.116,0.318-0.175,0.491-0.175h6.575c0.053,0,0.104,0.016,0.153,0.045c0.049,0.03,0.092,0.079,0.13,0.147
		c0.038,0.067,0.064,0.156,0.079,0.266C150.047,425.818,150.055,425.945,150.055,426.087z"/>
	<path d="M154.867,425.986c0,0.437-0.083,0.734-0.249,0.893c-0.166,0.158-0.471,0.237-0.915,0.237c-0.437,0-0.736-0.077-0.898-0.231
		c-0.162-0.154-0.243-0.446-0.243-0.876c0-0.437,0.083-0.734,0.249-0.893s0.471-0.237,0.915-0.237c0.437,0,0.736,0.077,0.898,0.231
		C154.786,425.265,154.867,425.556,154.867,425.986z M154.652,439.587c0,0.061-0.015,0.111-0.045,0.152
		c-0.03,0.041-0.079,0.077-0.147,0.107s-0.162,0.053-0.282,0.067c-0.121,0.016-0.275,0.022-0.463,0.022
		c-0.181,0-0.332-0.007-0.452-0.022c-0.121-0.015-0.217-0.037-0.288-0.067c-0.072-0.03-0.121-0.066-0.147-0.107
		s-0.04-0.092-0.04-0.152V429.42c0-0.053,0.013-0.103,0.04-0.147s0.075-0.083,0.147-0.112c0.071-0.03,0.167-0.053,0.288-0.068
		c0.12-0.015,0.271-0.022,0.452-0.022c0.188,0,0.343,0.008,0.463,0.022c0.12,0.016,0.214,0.038,0.282,0.068
		c0.068,0.029,0.117,0.067,0.147,0.112c0.03,0.045,0.045,0.095,0.045,0.147V439.587z"/>
	<path d="M164.04,430.086c0,0.166-0.004,0.305-0.011,0.418s-0.022,0.202-0.045,0.266c-0.023,0.064-0.051,0.113-0.085,0.146
		c-0.034,0.034-0.081,0.051-0.141,0.051c-0.061,0-0.134-0.017-0.22-0.051c-0.087-0.033-0.185-0.067-0.294-0.102
		c-0.109-0.033-0.231-0.065-0.367-0.096c-0.135-0.03-0.282-0.045-0.44-0.045c-0.188,0-0.373,0.037-0.554,0.112
		c-0.181,0.076-0.371,0.2-0.57,0.373c-0.2,0.174-0.409,0.403-0.627,0.689c-0.219,0.286-0.459,0.637-0.723,1.051v6.688
		c0,0.061-0.015,0.111-0.045,0.152c-0.03,0.041-0.079,0.077-0.147,0.107s-0.162,0.053-0.282,0.067
		c-0.121,0.016-0.275,0.022-0.463,0.022c-0.181,0-0.332-0.007-0.452-0.022c-0.121-0.015-0.217-0.037-0.288-0.067
		c-0.072-0.03-0.121-0.066-0.147-0.107s-0.04-0.092-0.04-0.152V429.42c0-0.061,0.011-0.111,0.034-0.153
		c0.022-0.041,0.068-0.079,0.136-0.112c0.068-0.034,0.154-0.057,0.26-0.068c0.105-0.011,0.245-0.017,0.418-0.017
		c0.166,0,0.303,0.006,0.412,0.017c0.109,0.012,0.194,0.034,0.254,0.068c0.06,0.033,0.104,0.071,0.13,0.112
		c0.026,0.042,0.04,0.093,0.04,0.153v1.479c0.279-0.406,0.541-0.738,0.785-0.994s0.476-0.457,0.695-0.604
		c0.218-0.146,0.435-0.248,0.649-0.305c0.215-0.057,0.431-0.085,0.65-0.085c0.098,0,0.209,0.006,0.333,0.017
		c0.125,0.012,0.254,0.032,0.39,0.063c0.136,0.03,0.258,0.064,0.367,0.102c0.109,0.038,0.187,0.075,0.231,0.113
		c0.045,0.037,0.075,0.073,0.091,0.107c0.015,0.033,0.028,0.077,0.04,0.13c0.011,0.053,0.019,0.13,0.022,0.231
		C164.038,429.776,164.04,429.914,164.04,430.086z"/>
</g>
<g enable-background="new    ">
	<path d="M181.245,439.587c0,0.061-0.015,0.111-0.045,0.152c-0.03,0.041-0.079,0.077-0.147,0.107s-0.162,0.053-0.282,0.067
		c-0.121,0.016-0.271,0.022-0.452,0.022c-0.188,0-0.343-0.007-0.463-0.022c-0.121-0.015-0.217-0.037-0.288-0.067
		c-0.072-0.03-0.123-0.066-0.153-0.107c-0.03-0.041-0.045-0.092-0.045-0.152v-6.18c0-0.429-0.038-0.82-0.113-1.175
		c-0.075-0.354-0.196-0.659-0.361-0.915s-0.376-0.452-0.633-0.588c-0.256-0.135-0.557-0.203-0.903-0.203
		c-0.43,0-0.861,0.166-1.293,0.497c-0.434,0.332-0.91,0.817-1.429,1.458v7.105c0,0.061-0.015,0.111-0.045,0.152
		s-0.081,0.077-0.152,0.107c-0.072,0.03-0.167,0.053-0.288,0.067c-0.121,0.016-0.271,0.022-0.452,0.022
		c-0.173,0-0.322-0.007-0.446-0.022c-0.125-0.015-0.222-0.037-0.294-0.067s-0.121-0.066-0.147-0.107s-0.04-0.092-0.04-0.152v-6.18
		c0-0.429-0.042-0.82-0.124-1.175c-0.083-0.354-0.208-0.659-0.373-0.915s-0.375-0.452-0.627-0.588
		c-0.252-0.135-0.552-0.203-0.898-0.203c-0.429,0-0.862,0.166-1.299,0.497c-0.437,0.332-0.911,0.817-1.423,1.458v7.105
		c0,0.061-0.015,0.111-0.045,0.152c-0.03,0.041-0.079,0.077-0.147,0.107s-0.162,0.053-0.282,0.067
		c-0.121,0.016-0.275,0.022-0.463,0.022c-0.181,0-0.332-0.007-0.452-0.022c-0.121-0.015-0.217-0.037-0.288-0.067
		c-0.072-0.03-0.121-0.066-0.147-0.107s-0.04-0.092-0.04-0.152V429.42c0-0.061,0.011-0.111,0.034-0.153
		c0.022-0.041,0.068-0.079,0.136-0.112c0.068-0.034,0.154-0.057,0.26-0.068c0.105-0.011,0.245-0.017,0.418-0.017
		c0.166,0,0.303,0.006,0.412,0.017c0.109,0.012,0.194,0.034,0.254,0.068c0.06,0.033,0.104,0.071,0.13,0.112
		c0.026,0.042,0.04,0.093,0.04,0.153v1.344c0.572-0.64,1.128-1.108,1.667-1.406c0.538-0.298,1.083-0.446,1.632-0.446
		c0.421,0,0.8,0.049,1.135,0.146c0.335,0.099,0.631,0.236,0.887,0.413s0.475,0.388,0.655,0.632c0.181,0.245,0.332,0.519,0.452,0.819
		c0.339-0.369,0.661-0.682,0.966-0.938c0.305-0.256,0.599-0.463,0.881-0.621c0.283-0.158,0.557-0.273,0.825-0.345
		c0.267-0.071,0.537-0.107,0.808-0.107c0.655,0,1.205,0.115,1.649,0.345s0.804,0.536,1.079,0.921c0.275,0.384,0.47,0.834,0.587,1.35
		c0.117,0.516,0.175,1.061,0.175,1.633V439.587z"/>
</g>
<g enable-background="new    ">
	<path d="M192.189,439.598c0,0.091-0.03,0.158-0.09,0.204c-0.061,0.045-0.143,0.079-0.249,0.102s-0.26,0.033-0.463,0.033
		c-0.196,0-0.352-0.011-0.469-0.033s-0.202-0.057-0.254-0.102c-0.053-0.046-0.079-0.113-0.079-0.204v-1.017
		c-0.445,0.475-0.94,0.844-1.486,1.107s-1.124,0.396-1.734,0.396c-0.535,0-1.019-0.07-1.452-0.209
		c-0.433-0.14-0.802-0.341-1.107-0.604c-0.305-0.264-0.542-0.588-0.712-0.972s-0.254-0.82-0.254-1.311
		c0-0.572,0.116-1.069,0.35-1.491c0.233-0.422,0.568-0.771,1.005-1.051c0.437-0.278,0.972-0.487,1.604-0.627
		c0.633-0.139,1.344-0.209,2.135-0.209h1.401v-0.79c0-0.392-0.042-0.738-0.125-1.04c-0.083-0.301-0.216-0.552-0.401-0.751
		s-0.424-0.351-0.717-0.452c-0.294-0.102-0.655-0.152-1.084-0.152c-0.459,0-0.872,0.055-1.237,0.164s-0.685,0.229-0.96,0.361
		s-0.505,0.253-0.689,0.361c-0.185,0.109-0.322,0.164-0.412,0.164c-0.061,0-0.113-0.015-0.158-0.045
		c-0.045-0.03-0.084-0.075-0.119-0.136c-0.034-0.061-0.059-0.138-0.073-0.231c-0.015-0.095-0.023-0.198-0.023-0.311
		c0-0.188,0.013-0.337,0.04-0.446s0.091-0.213,0.192-0.311c0.102-0.099,0.277-0.213,0.525-0.345s0.535-0.253,0.858-0.361
		c0.324-0.109,0.678-0.2,1.062-0.271c0.384-0.071,0.772-0.107,1.164-0.107c0.73,0,1.352,0.083,1.864,0.249
		c0.512,0.165,0.926,0.408,1.243,0.729s0.546,0.717,0.689,1.191s0.215,1.028,0.215,1.661V439.598z M190.337,434.956h-1.593
		c-0.513,0-0.957,0.043-1.333,0.13c-0.376,0.087-0.689,0.215-0.938,0.384c-0.249,0.17-0.431,0.373-0.548,0.61
		s-0.175,0.51-0.175,0.819c0,0.527,0.168,0.947,0.503,1.259c0.335,0.313,0.804,0.47,1.406,0.47c0.49,0,0.943-0.125,1.361-0.373
		c0.418-0.249,0.857-0.629,1.316-1.142V434.956z"/>
</g>
<g enable-background="new    ">
</g>
<g enable-background="new    ">
	<path d="M212.096,439.18c0.06,0.166,0.092,0.3,0.096,0.401c0.003,0.102-0.024,0.179-0.085,0.231
		c-0.06,0.053-0.16,0.087-0.299,0.102c-0.139,0.016-0.326,0.022-0.559,0.022s-0.42-0.005-0.559-0.017
		c-0.14-0.012-0.245-0.03-0.316-0.057c-0.072-0.026-0.125-0.062-0.158-0.107c-0.034-0.045-0.066-0.102-0.096-0.169l-1.254-3.559
		h-6.078l-1.197,3.514c-0.023,0.067-0.053,0.126-0.09,0.175c-0.038,0.049-0.092,0.09-0.164,0.124s-0.173,0.059-0.305,0.073
		c-0.132,0.016-0.303,0.022-0.514,0.022c-0.219,0-0.397-0.009-0.537-0.028c-0.14-0.019-0.237-0.054-0.294-0.106
		c-0.056-0.053-0.083-0.13-0.079-0.232c0.004-0.102,0.036-0.234,0.096-0.4l4.903-13.579c0.03-0.083,0.069-0.15,0.119-0.203
		c0.049-0.053,0.12-0.095,0.215-0.124c0.094-0.03,0.214-0.051,0.361-0.063s0.333-0.017,0.559-0.017c0.241,0,0.44,0.005,0.599,0.017
		s0.286,0.032,0.384,0.063c0.098,0.029,0.173,0.073,0.226,0.13c0.052,0.056,0.094,0.126,0.124,0.209L212.096,439.18z
		 M205.804,427.195h-0.011l-2.519,7.286h5.083L205.804,427.195z"/>
</g>
<g enable-background="new    ">
	<path d="M401.305,426.087c0,0.144-0.008,0.268-0.022,0.373s-0.042,0.19-0.079,0.254c-0.038,0.064-0.081,0.111-0.13,0.142
		c-0.05,0.03-0.101,0.045-0.153,0.045h-5.354v4.971h5.061c0.053,0,0.104,0.013,0.152,0.039s0.092,0.07,0.13,0.13
		c0.038,0.061,0.063,0.142,0.079,0.243s0.022,0.231,0.022,0.39c0,0.144-0.007,0.266-0.022,0.367s-0.041,0.185-0.079,0.249
		c-0.038,0.063-0.081,0.112-0.13,0.146s-0.1,0.051-0.152,0.051h-5.061v6.089c0,0.053-0.016,0.104-0.046,0.152
		c-0.03,0.05-0.083,0.087-0.158,0.113s-0.173,0.049-0.294,0.067c-0.12,0.02-0.278,0.028-0.475,0.028
		c-0.18,0-0.334-0.009-0.463-0.028c-0.128-0.019-0.229-0.041-0.305-0.067c-0.076-0.026-0.129-0.063-0.158-0.113
		c-0.03-0.049-0.045-0.1-0.045-0.152v-13.533c0-0.294,0.076-0.499,0.231-0.616c0.154-0.116,0.317-0.175,0.491-0.175h6.574
		c0.053,0,0.104,0.016,0.153,0.045c0.049,0.03,0.092,0.079,0.13,0.147c0.037,0.067,0.064,0.156,0.079,0.266
		C401.297,425.818,401.305,425.945,401.305,426.087z"/>
	<path d="M406.117,425.986c0,0.437-0.083,0.734-0.248,0.893c-0.166,0.158-0.471,0.237-0.916,0.237c-0.437,0-0.736-0.077-0.897-0.231
		c-0.162-0.154-0.243-0.446-0.243-0.876c0-0.437,0.083-0.734,0.248-0.893c0.166-0.158,0.471-0.237,0.916-0.237
		c0.436,0,0.736,0.077,0.897,0.231C406.036,425.265,406.117,425.556,406.117,425.986z M405.902,439.587
		c0,0.061-0.016,0.111-0.045,0.152c-0.03,0.041-0.079,0.077-0.146,0.107c-0.068,0.03-0.162,0.053-0.283,0.067
		c-0.12,0.016-0.275,0.022-0.463,0.022c-0.181,0-0.332-0.007-0.451-0.022c-0.121-0.015-0.217-0.037-0.289-0.067
		c-0.071-0.03-0.12-0.066-0.146-0.107s-0.039-0.092-0.039-0.152V429.42c0-0.053,0.013-0.103,0.039-0.147s0.075-0.083,0.146-0.112
		c0.072-0.03,0.168-0.053,0.289-0.068c0.119-0.015,0.271-0.022,0.451-0.022c0.188,0,0.343,0.008,0.463,0.022
		c0.121,0.016,0.215,0.038,0.283,0.068c0.067,0.029,0.116,0.067,0.146,0.112c0.029,0.045,0.045,0.095,0.045,0.147V439.587z"/>
	<path d="M415.29,430.086c0,0.166-0.004,0.305-0.011,0.418c-0.008,0.113-0.023,0.202-0.045,0.266
		c-0.023,0.064-0.051,0.113-0.086,0.146c-0.033,0.034-0.08,0.051-0.141,0.051s-0.134-0.017-0.221-0.051
		c-0.086-0.033-0.184-0.067-0.293-0.102c-0.109-0.033-0.232-0.065-0.367-0.096c-0.136-0.03-0.283-0.045-0.441-0.045
		c-0.188,0-0.372,0.037-0.553,0.112c-0.182,0.076-0.371,0.2-0.57,0.373c-0.2,0.174-0.409,0.403-0.627,0.689
		c-0.219,0.286-0.46,0.637-0.724,1.051v6.688c0,0.061-0.015,0.111-0.045,0.152s-0.079,0.077-0.147,0.107
		c-0.067,0.03-0.162,0.053-0.281,0.067c-0.121,0.016-0.275,0.022-0.464,0.022c-0.181,0-0.331-0.007-0.452-0.022
		c-0.12-0.015-0.217-0.037-0.287-0.067c-0.072-0.03-0.121-0.066-0.147-0.107s-0.04-0.092-0.04-0.152V429.42
		c0-0.061,0.012-0.111,0.034-0.153c0.022-0.041,0.067-0.079,0.136-0.112c0.068-0.034,0.154-0.057,0.26-0.068
		c0.105-0.011,0.244-0.017,0.418-0.017c0.166,0,0.303,0.006,0.412,0.017c0.109,0.012,0.193,0.034,0.254,0.068
		c0.061,0.033,0.104,0.071,0.131,0.112c0.025,0.042,0.039,0.093,0.039,0.153v1.479c0.279-0.406,0.541-0.738,0.785-0.994
		s0.477-0.457,0.695-0.604c0.218-0.146,0.435-0.248,0.648-0.305c0.215-0.057,0.432-0.085,0.65-0.085
		c0.098,0,0.209,0.006,0.333,0.017c0.124,0.012,0.255,0.032,0.39,0.063c0.136,0.03,0.258,0.064,0.367,0.102
		c0.109,0.038,0.187,0.075,0.231,0.113c0.046,0.037,0.075,0.073,0.091,0.107c0.015,0.033,0.027,0.077,0.039,0.13
		s0.02,0.13,0.023,0.231C415.288,429.776,415.29,429.914,415.29,430.086z"/>
</g>
<g enable-background="new    ">
	<path d="M432.495,439.587c0,0.061-0.015,0.111-0.045,0.152s-0.079,0.077-0.147,0.107c-0.067,0.03-0.162,0.053-0.281,0.067
		c-0.121,0.016-0.271,0.022-0.453,0.022c-0.188,0-0.342-0.007-0.463-0.022c-0.12-0.015-0.217-0.037-0.287-0.067
		c-0.072-0.03-0.123-0.066-0.153-0.107s-0.045-0.092-0.045-0.152v-6.18c0-0.429-0.038-0.82-0.113-1.175
		c-0.075-0.354-0.196-0.659-0.361-0.915s-0.376-0.452-0.633-0.588c-0.256-0.135-0.558-0.203-0.903-0.203
		c-0.43,0-0.861,0.166-1.293,0.497c-0.434,0.332-0.91,0.817-1.43,1.458v7.105c0,0.061-0.016,0.111-0.045,0.152
		c-0.031,0.041-0.082,0.077-0.152,0.107c-0.072,0.03-0.168,0.053-0.289,0.067c-0.12,0.016-0.271,0.022-0.451,0.022
		c-0.174,0-0.322-0.007-0.446-0.022c-0.124-0.015-0.222-0.037-0.294-0.067s-0.121-0.066-0.146-0.107
		c-0.027-0.041-0.04-0.092-0.04-0.152v-6.18c0-0.429-0.042-0.82-0.124-1.175c-0.083-0.354-0.207-0.659-0.373-0.915
		s-0.375-0.452-0.627-0.588c-0.252-0.135-0.552-0.203-0.898-0.203c-0.429,0-0.861,0.166-1.299,0.497
		c-0.437,0.332-0.911,0.817-1.424,1.458v7.105c0,0.061-0.015,0.111-0.045,0.152c-0.029,0.041-0.078,0.077-0.146,0.107
		s-0.162,0.053-0.282,0.067c-0.12,0.016-0.275,0.022-0.464,0.022c-0.18,0-0.331-0.007-0.451-0.022
		c-0.121-0.015-0.217-0.037-0.288-0.067s-0.12-0.066-0.147-0.107c-0.025-0.041-0.039-0.092-0.039-0.152V429.42
		c0-0.061,0.012-0.111,0.033-0.153c0.023-0.041,0.068-0.079,0.137-0.112c0.067-0.034,0.154-0.057,0.26-0.068
		c0.105-0.011,0.244-0.017,0.418-0.017c0.165,0,0.303,0.006,0.412,0.017c0.109,0.012,0.193,0.034,0.254,0.068
		c0.061,0.033,0.104,0.071,0.13,0.112c0.026,0.042,0.04,0.093,0.04,0.153v1.344c0.572-0.64,1.127-1.108,1.666-1.406
		c0.538-0.298,1.082-0.446,1.633-0.446c0.421,0,0.799,0.049,1.135,0.146c0.335,0.099,0.631,0.236,0.887,0.413
		s0.475,0.388,0.655,0.632c0.181,0.245,0.331,0.519,0.452,0.819c0.339-0.369,0.66-0.682,0.966-0.938
		c0.305-0.256,0.599-0.463,0.881-0.621s0.558-0.273,0.825-0.345c0.267-0.071,0.536-0.107,0.807-0.107
		c0.656,0,1.205,0.115,1.65,0.345c0.443,0.229,0.803,0.536,1.078,0.921c0.275,0.384,0.471,0.834,0.588,1.35s0.175,1.061,0.175,1.633
		V439.587z"/>
</g>
<g enable-background="new    ">
	<path d="M443.439,439.598c0,0.091-0.03,0.158-0.09,0.204c-0.061,0.045-0.144,0.079-0.249,0.102s-0.26,0.033-0.464,0.033
		c-0.195,0-0.352-0.011-0.469-0.033c-0.116-0.022-0.201-0.057-0.254-0.102c-0.053-0.046-0.078-0.113-0.078-0.204v-1.017
		c-0.445,0.475-0.94,0.844-1.486,1.107s-1.124,0.396-1.734,0.396c-0.534,0-1.018-0.07-1.451-0.209
		c-0.434-0.14-0.803-0.341-1.107-0.604s-0.542-0.588-0.711-0.972c-0.17-0.384-0.254-0.82-0.254-1.311
		c0-0.572,0.115-1.069,0.35-1.491c0.233-0.422,0.568-0.771,1.006-1.051c0.436-0.278,0.971-0.487,1.604-0.627
		c0.633-0.139,1.344-0.209,2.135-0.209h1.401v-0.79c0-0.392-0.042-0.738-0.124-1.04c-0.084-0.301-0.217-0.552-0.401-0.751
		s-0.424-0.351-0.718-0.452c-0.293-0.102-0.654-0.152-1.084-0.152c-0.459,0-0.872,0.055-1.237,0.164s-0.685,0.229-0.96,0.361
		s-0.505,0.253-0.689,0.361c-0.185,0.109-0.322,0.164-0.412,0.164c-0.061,0-0.113-0.015-0.158-0.045s-0.084-0.075-0.119-0.136
		c-0.033-0.061-0.059-0.138-0.072-0.231c-0.016-0.095-0.023-0.198-0.023-0.311c0-0.188,0.014-0.337,0.039-0.446
		c0.027-0.109,0.092-0.213,0.193-0.311c0.102-0.099,0.276-0.213,0.525-0.345c0.248-0.132,0.534-0.253,0.857-0.361
		c0.324-0.109,0.678-0.2,1.063-0.271c0.384-0.071,0.771-0.107,1.164-0.107c0.73,0,1.352,0.083,1.863,0.249
		c0.512,0.165,0.926,0.408,1.242,0.729s0.547,0.717,0.689,1.191s0.215,1.028,0.215,1.661V439.598z M441.587,434.956h-1.593
		c-0.513,0-0.957,0.043-1.334,0.13c-0.376,0.087-0.688,0.215-0.938,0.384c-0.248,0.17-0.431,0.373-0.547,0.61
		c-0.117,0.237-0.176,0.51-0.176,0.819c0,0.527,0.168,0.947,0.503,1.259c0.335,0.313,0.804,0.47,1.406,0.47
		c0.489,0,0.943-0.125,1.361-0.373c0.418-0.249,0.856-0.629,1.316-1.142V434.956z"/>
</g>
<g enable-background="new    ">
	<path d="M461.988,435.678c0,0.46-0.058,0.884-0.174,1.271c-0.117,0.388-0.281,0.736-0.492,1.045s-0.465,0.58-0.762,0.813
		c-0.299,0.233-0.633,0.429-1.006,0.587s-0.772,0.277-1.197,0.356c-0.426,0.079-0.914,0.118-1.463,0.118h-3.818
		c-0.174,0-0.338-0.059-0.492-0.175c-0.154-0.117-0.231-0.322-0.231-0.616v-13.036c0-0.294,0.077-0.499,0.231-0.616
		c0.154-0.116,0.318-0.175,0.492-0.175h3.32c0.874,0,1.59,0.083,2.146,0.249c0.558,0.165,1.023,0.406,1.396,0.723
		c0.373,0.316,0.653,0.704,0.842,1.163c0.188,0.46,0.282,0.979,0.282,1.56c0,0.347-0.041,0.678-0.124,0.994
		s-0.206,0.608-0.367,0.875c-0.162,0.268-0.365,0.507-0.61,0.718c-0.244,0.211-0.525,0.384-0.842,0.52
		c0.399,0.075,0.772,0.213,1.119,0.412c0.346,0.2,0.649,0.454,0.909,0.763s0.465,0.671,0.616,1.085
		C461.914,434.726,461.988,435.181,461.988,435.678z M459.063,429.137c0-0.354-0.049-0.674-0.146-0.96s-0.251-0.529-0.461-0.729
		c-0.211-0.199-0.485-0.352-0.823-0.458c-0.339-0.104-0.785-0.157-1.341-0.157h-2.006v4.733h2.208c0.503,0,0.909-0.066,1.218-0.198
		c0.308-0.132,0.563-0.309,0.766-0.531c0.203-0.222,0.352-0.481,0.445-0.779C459.016,429.761,459.063,429.454,459.063,429.137z
		 M459.944,435.792c0-0.437-0.069-0.821-0.209-1.152c-0.139-0.331-0.342-0.61-0.608-0.836c-0.268-0.226-0.602-0.397-1.004-0.514
		c-0.402-0.117-0.907-0.176-1.516-0.176h-2.322v5.151h2.818c0.443,0,0.83-0.053,1.16-0.158c0.331-0.105,0.623-0.261,0.875-0.469
		c0.251-0.207,0.448-0.465,0.592-0.773C459.873,436.556,459.944,436.198,459.944,435.792z"/>
</g>
<rect id="rect97" x="562.658" y="159.717" fill="#4F81BD" width="12.842" height="12.84"/>
<g id="text99" enable-background="new    ">
	<path d="M591.467,171.913c0,0.136-0.01,0.256-0.028,0.361s-0.046,0.193-0.079,0.265c-0.033,0.072-0.079,0.124-0.135,0.158
		c-0.057,0.034-0.119,0.051-0.188,0.051h-8.068c-0.105,0-0.197-0.013-0.276-0.039s-0.147-0.07-0.203-0.13
		c-0.057-0.061-0.099-0.147-0.124-0.26c-0.027-0.113-0.039-0.252-0.039-0.418c0-0.15,0.006-0.282,0.018-0.395
		c0.011-0.113,0.036-0.213,0.074-0.299c0.039-0.087,0.088-0.174,0.146-0.26c0.058-0.087,0.133-0.179,0.227-0.276l2.918-3.002
		c0.675-0.692,1.216-1.313,1.623-1.862c0.406-0.549,0.721-1.05,0.941-1.501s0.367-0.861,0.437-1.229
		c0.069-0.369,0.104-0.715,0.104-1.039c0-0.323-0.055-0.63-0.163-0.919c-0.108-0.29-0.266-0.544-0.472-0.762
		c-0.205-0.219-0.464-0.392-0.774-0.52s-0.667-0.192-1.071-0.192c-0.473,0-0.898,0.064-1.275,0.192
		c-0.376,0.128-0.706,0.267-0.989,0.418c-0.283,0.15-0.521,0.289-0.71,0.417c-0.19,0.128-0.332,0.192-0.426,0.192
		c-0.054,0-0.103-0.016-0.145-0.046c-0.043-0.029-0.078-0.079-0.105-0.146s-0.049-0.158-0.064-0.271
		c-0.016-0.113-0.023-0.248-0.023-0.406c0-0.113,0.004-0.211,0.012-0.294c0.008-0.082,0.021-0.154,0.039-0.214
		c0.02-0.061,0.044-0.117,0.074-0.17c0.029-0.052,0.09-0.118,0.18-0.197c0.091-0.079,0.247-0.187,0.469-0.321
		c0.223-0.136,0.5-0.27,0.836-0.4c0.334-0.132,0.703-0.243,1.105-0.333c0.402-0.091,0.826-0.136,1.27-0.136
		c0.707,0,1.326,0.1,1.856,0.299s0.971,0.473,1.32,0.818s0.611,0.749,0.784,1.208c0.174,0.459,0.26,0.947,0.26,1.467
		c0,0.467-0.041,0.931-0.124,1.394s-0.258,0.963-0.524,1.501c-0.268,0.538-0.653,1.136-1.157,1.794
		c-0.504,0.659-1.174,1.417-2.009,2.274l-2.313,2.415h6.354c0.06,0,0.118,0.017,0.175,0.051c0.057,0.033,0.105,0.084,0.146,0.152
		c0.041,0.067,0.072,0.152,0.091,0.254S591.467,171.777,591.467,171.913z"/>
	<path d="M603.666,165.413c0,1.121-0.089,2.144-0.266,3.069c-0.177,0.925-0.471,1.721-0.881,2.387s-0.945,1.182-1.607,1.546
		c-0.662,0.365-1.479,0.548-2.449,0.548c-0.918,0-1.691-0.164-2.318-0.491c-0.629-0.327-1.135-0.809-1.518-1.444
		c-0.385-0.636-0.657-1.418-0.818-2.348c-0.162-0.929-0.243-1.995-0.243-3.199c0-1.113,0.091-2.135,0.271-3.064
		c0.182-0.929,0.475-1.727,0.881-2.392c0.406-0.666,0.939-1.182,1.602-1.547c0.662-0.364,1.475-0.547,2.438-0.547
		c0.925,0,1.702,0.164,2.33,0.491s1.134,0.809,1.519,1.444c0.383,0.636,0.656,1.418,0.817,2.347
		C603.585,163.142,603.666,164.208,603.666,165.413z M601.68,165.547c0-0.729-0.027-1.384-0.079-1.963
		c-0.053-0.58-0.13-1.091-0.231-1.535s-0.233-0.825-0.395-1.146c-0.162-0.319-0.355-0.583-0.582-0.79
		c-0.225-0.207-0.482-0.357-0.772-0.451s-0.615-0.142-0.977-0.142c-0.64,0-1.158,0.151-1.558,0.452
		c-0.398,0.301-0.713,0.715-0.941,1.241c-0.23,0.526-0.387,1.144-0.469,1.851c-0.083,0.707-0.124,1.467-0.124,2.279
		c0,1.091,0.056,2.019,0.169,2.782s0.291,1.386,0.536,1.867s0.557,0.832,0.937,1.05c0.38,0.219,0.841,0.327,1.383,0.327
		c0.422,0,0.791-0.067,1.111-0.203s0.594-0.329,0.824-0.581c0.229-0.252,0.419-0.555,0.57-0.908c0.15-0.354,0.27-0.745,0.36-1.174
		s0.152-0.894,0.187-1.394C601.662,166.611,601.68,166.089,601.68,165.547z"/>
	<path d="M615.38,165.413c0,1.121-0.089,2.144-0.265,3.069c-0.178,0.925-0.471,1.721-0.881,2.387s-0.945,1.182-1.607,1.546
		c-0.662,0.365-1.479,0.548-2.449,0.548c-0.918,0-1.691-0.164-2.319-0.491s-1.134-0.809-1.518-1.444s-0.657-1.418-0.818-2.348
		c-0.162-0.929-0.243-1.995-0.243-3.199c0-1.113,0.091-2.135,0.271-3.064c0.181-0.929,0.474-1.727,0.88-2.392
		c0.407-0.666,0.94-1.182,1.603-1.547c0.662-0.364,1.475-0.547,2.438-0.547c0.926,0,1.703,0.164,2.33,0.491
		c0.629,0.327,1.135,0.809,1.519,1.444s0.656,1.418,0.817,2.347C615.299,163.142,615.38,164.208,615.38,165.413z M613.395,165.547
		c0-0.729-0.027-1.384-0.08-1.963c-0.053-0.58-0.129-1.091-0.23-1.535s-0.234-0.825-0.396-1.146
		c-0.161-0.319-0.355-0.583-0.581-0.79s-0.483-0.357-0.773-0.451c-0.289-0.094-0.615-0.142-0.977-0.142
		c-0.639,0-1.158,0.151-1.557,0.452s-0.713,0.715-0.942,1.241s-0.386,1.144-0.468,1.851c-0.084,0.707-0.125,1.467-0.125,2.279
		c0,1.091,0.057,2.019,0.17,2.782s0.291,1.386,0.535,1.867c0.245,0.481,0.557,0.832,0.938,1.05c0.379,0.219,0.84,0.327,1.383,0.327
		c0.421,0,0.791-0.067,1.111-0.203c0.319-0.136,0.594-0.329,0.824-0.581c0.229-0.252,0.418-0.555,0.569-0.908
		c0.15-0.354,0.271-0.745,0.36-1.174c0.091-0.429,0.152-0.894,0.188-1.394C613.377,166.611,613.395,166.089,613.395,165.547z"/>
	<path d="M626.947,169c0,0.633-0.113,1.195-0.339,1.688c-0.226,0.493-0.551,0.908-0.976,1.247c-0.426,0.339-0.95,0.595-1.574,0.768
		c-0.625,0.173-1.34,0.26-2.145,0.26c-0.752,0-1.426-0.079-2.02-0.237c-0.596-0.158-1.1-0.392-1.513-0.7
		c-0.414-0.308-0.729-0.688-0.948-1.14c-0.219-0.451-0.327-0.967-0.327-1.546c0-0.459,0.075-0.88,0.226-1.264
		s0.367-0.737,0.648-1.061c0.283-0.324,0.631-0.627,1.045-0.909c0.413-0.282,0.88-0.551,1.398-0.807
		c-0.451-0.233-0.85-0.479-1.195-0.739c-0.347-0.26-0.641-0.542-0.881-0.847s-0.423-0.63-0.547-0.976
		c-0.125-0.346-0.187-0.723-0.187-1.129c0-0.512,0.093-0.991,0.276-1.438c0.185-0.447,0.463-0.837,0.836-1.168
		c0.371-0.331,0.846-0.593,1.422-0.784c0.575-0.192,1.246-0.288,2.014-0.288c0.737,0,1.375,0.089,1.913,0.266
		s0.981,0.417,1.331,0.722c0.351,0.305,0.607,0.664,0.773,1.078s0.248,0.857,0.248,1.331c0,0.384-0.062,0.753-0.186,1.106
		c-0.125,0.354-0.307,0.688-0.548,1.004c-0.241,0.316-0.536,0.611-0.886,0.886c-0.35,0.275-0.75,0.533-1.201,0.773
		c0.533,0.264,1.01,0.534,1.427,0.813c0.418,0.278,0.768,0.577,1.05,0.897c0.282,0.319,0.496,0.658,0.643,1.016
		C626.874,168.179,626.947,168.572,626.947,169z M624.983,169.204c0-0.346-0.063-0.66-0.192-0.942
		c-0.127-0.281-0.32-0.545-0.58-0.789c-0.26-0.245-0.584-0.481-0.971-0.711c-0.388-0.229-0.838-0.469-1.349-0.717
		c-0.474,0.233-0.89,0.467-1.247,0.699c-0.357,0.233-0.65,0.475-0.881,0.723c-0.229,0.248-0.402,0.51-0.519,0.784
		s-0.175,0.577-0.175,0.908c0,0.73,0.25,1.294,0.75,1.693c0.5,0.398,1.247,0.598,2.24,0.598c0.963,0,1.691-0.201,2.184-0.604
		C624.737,170.444,624.983,169.896,624.983,169.204z M624.51,161.507c0-0.315-0.055-0.602-0.164-0.857s-0.27-0.474-0.479-0.654
		s-0.472-0.318-0.784-0.412s-0.668-0.142-1.066-0.142c-0.813,0-1.428,0.185-1.846,0.554c-0.417,0.368-0.626,0.873-0.626,1.512
		c0,0.294,0.051,0.566,0.152,0.818s0.26,0.491,0.474,0.717c0.215,0.226,0.486,0.445,0.813,0.66c0.328,0.214,0.717,0.438,1.168,0.671
		c0.76-0.391,1.344-0.823,1.75-1.297C624.307,162.602,624.51,162.08,624.51,161.507z"/>
</g>
<rect id="rect101" x="562.658" y="201.717" fill="#C0504D" width="12.842" height="12.72"/>
<g id="text103" enable-background="new    ">
	<path d="M591.467,213.863c0,0.136-0.01,0.256-0.028,0.361s-0.046,0.193-0.079,0.265c-0.033,0.072-0.079,0.124-0.135,0.158
		c-0.057,0.034-0.119,0.051-0.188,0.051h-8.068c-0.105,0-0.197-0.013-0.276-0.039s-0.147-0.07-0.203-0.13
		c-0.057-0.061-0.099-0.147-0.124-0.26c-0.027-0.113-0.039-0.252-0.039-0.418c0-0.15,0.006-0.282,0.018-0.395
		c0.011-0.113,0.036-0.213,0.074-0.299c0.039-0.087,0.088-0.174,0.146-0.26c0.058-0.087,0.133-0.179,0.227-0.276l2.918-3.002
		c0.675-0.692,1.216-1.313,1.623-1.862c0.406-0.549,0.721-1.05,0.941-1.501s0.367-0.861,0.437-1.229
		c0.069-0.369,0.104-0.715,0.104-1.039c0-0.323-0.055-0.63-0.163-0.919c-0.108-0.29-0.266-0.544-0.472-0.762
		c-0.205-0.219-0.464-0.392-0.774-0.52s-0.667-0.192-1.071-0.192c-0.473,0-0.898,0.064-1.275,0.192
		c-0.376,0.128-0.706,0.267-0.989,0.418c-0.283,0.15-0.521,0.289-0.71,0.417c-0.19,0.128-0.332,0.192-0.426,0.192
		c-0.054,0-0.103-0.016-0.145-0.046c-0.043-0.029-0.078-0.079-0.105-0.146s-0.049-0.158-0.064-0.271
		c-0.016-0.113-0.023-0.248-0.023-0.406c0-0.113,0.004-0.211,0.012-0.294c0.008-0.082,0.021-0.154,0.039-0.214
		c0.02-0.061,0.044-0.117,0.074-0.17c0.029-0.052,0.09-0.118,0.18-0.197c0.091-0.079,0.247-0.187,0.469-0.321
		c0.223-0.136,0.5-0.27,0.836-0.4c0.334-0.132,0.703-0.243,1.105-0.333c0.402-0.091,0.826-0.136,1.27-0.136
		c0.707,0,1.326,0.1,1.856,0.299s0.971,0.473,1.32,0.818s0.611,0.749,0.784,1.208c0.174,0.459,0.26,0.947,0.26,1.467
		c0,0.467-0.041,0.931-0.124,1.394s-0.258,0.963-0.524,1.501c-0.268,0.538-0.653,1.136-1.157,1.794
		c-0.504,0.659-1.174,1.417-2.009,2.274l-2.313,2.415h6.354c0.06,0,0.118,0.017,0.175,0.051c0.057,0.033,0.105,0.084,0.146,0.152
		c0.041,0.067,0.072,0.152,0.091,0.254S591.467,213.727,591.467,213.863z"/>
	<path d="M603.666,207.363c0,1.121-0.089,2.144-0.266,3.069c-0.177,0.925-0.471,1.721-0.881,2.387s-0.945,1.182-1.607,1.546
		c-0.662,0.365-1.479,0.548-2.449,0.548c-0.918,0-1.691-0.164-2.318-0.491c-0.629-0.327-1.135-0.809-1.518-1.444
		c-0.385-0.636-0.657-1.418-0.818-2.348c-0.162-0.929-0.243-1.995-0.243-3.199c0-1.113,0.091-2.135,0.271-3.064
		c0.182-0.929,0.475-1.727,0.881-2.392c0.406-0.666,0.939-1.182,1.602-1.547c0.662-0.364,1.475-0.547,2.438-0.547
		c0.925,0,1.702,0.164,2.33,0.491s1.134,0.809,1.519,1.444c0.383,0.636,0.656,1.418,0.817,2.347
		C603.585,205.092,603.666,206.159,603.666,207.363z M601.68,207.498c0-0.729-0.027-1.384-0.079-1.963
		c-0.053-0.58-0.13-1.091-0.231-1.535s-0.233-0.825-0.395-1.146c-0.162-0.319-0.355-0.583-0.582-0.79
		c-0.225-0.207-0.482-0.357-0.772-0.451s-0.615-0.142-0.977-0.142c-0.64,0-1.158,0.151-1.558,0.452
		c-0.398,0.301-0.713,0.715-0.941,1.241c-0.23,0.526-0.387,1.144-0.469,1.851c-0.083,0.707-0.124,1.467-0.124,2.279
		c0,1.091,0.056,2.019,0.169,2.782s0.291,1.386,0.536,1.867s0.557,0.832,0.937,1.05c0.38,0.219,0.841,0.327,1.383,0.327
		c0.422,0,0.791-0.067,1.111-0.203s0.594-0.329,0.824-0.581c0.229-0.252,0.419-0.555,0.57-0.908c0.15-0.354,0.27-0.745,0.36-1.174
		s0.152-0.894,0.187-1.394C601.662,208.561,601.68,208.04,601.68,207.498z"/>
	<path d="M615.38,207.363c0,1.121-0.089,2.144-0.265,3.069c-0.178,0.925-0.471,1.721-0.881,2.387s-0.945,1.182-1.607,1.546
		c-0.662,0.365-1.479,0.548-2.449,0.548c-0.918,0-1.691-0.164-2.319-0.491s-1.134-0.809-1.518-1.444s-0.657-1.418-0.818-2.348
		c-0.162-0.929-0.243-1.995-0.243-3.199c0-1.113,0.091-2.135,0.271-3.064c0.181-0.929,0.474-1.727,0.88-2.392
		c0.407-0.666,0.94-1.182,1.603-1.547c0.662-0.364,1.475-0.547,2.438-0.547c0.926,0,1.703,0.164,2.33,0.491
		c0.629,0.327,1.135,0.809,1.519,1.444s0.656,1.418,0.817,2.347C615.299,205.092,615.38,206.159,615.38,207.363z M613.395,207.498
		c0-0.729-0.027-1.384-0.08-1.963c-0.053-0.58-0.129-1.091-0.23-1.535s-0.234-0.825-0.396-1.146
		c-0.161-0.319-0.355-0.583-0.581-0.79s-0.483-0.357-0.773-0.451c-0.289-0.094-0.615-0.142-0.977-0.142
		c-0.639,0-1.158,0.151-1.557,0.452s-0.713,0.715-0.942,1.241s-0.386,1.144-0.468,1.851c-0.084,0.707-0.125,1.467-0.125,2.279
		c0,1.091,0.057,2.019,0.17,2.782s0.291,1.386,0.535,1.867c0.245,0.481,0.557,0.832,0.938,1.05c0.379,0.219,0.84,0.327,1.383,0.327
		c0.421,0,0.791-0.067,1.111-0.203c0.319-0.136,0.594-0.329,0.824-0.581c0.229-0.252,0.418-0.555,0.569-0.908
		c0.15-0.354,0.271-0.745,0.36-1.174c0.091-0.429,0.152-0.894,0.188-1.394C613.377,208.561,613.395,208.04,613.395,207.498z"/>
	<path d="M626.722,206.821c0,0.632-0.038,1.271-0.113,1.918c-0.075,0.647-0.203,1.27-0.384,1.868
		c-0.18,0.598-0.423,1.158-0.728,1.682c-0.305,0.522-0.688,0.979-1.151,1.371s-1.012,0.698-1.647,0.92s-1.375,0.333-2.218,0.333
		c-0.323,0-0.637-0.021-0.941-0.063s-0.58-0.092-0.824-0.152s-0.449-0.124-0.615-0.191c-0.166-0.068-0.286-0.136-0.361-0.203
		c-0.075-0.068-0.129-0.16-0.164-0.277c-0.033-0.116-0.051-0.272-0.051-0.468c0-0.166,0.006-0.297,0.018-0.396
		c0.012-0.098,0.028-0.173,0.051-0.226s0.055-0.088,0.096-0.107c0.041-0.019,0.092-0.027,0.152-0.027
		c0.083,0,0.199,0.027,0.35,0.084s0.341,0.119,0.57,0.187s0.498,0.13,0.807,0.187c0.309,0.056,0.654,0.084,1.039,0.084
		c0.729,0,1.355-0.141,1.879-0.423c0.522-0.282,0.949-0.66,1.28-1.134c0.331-0.475,0.579-1.023,0.745-1.648
		c0.165-0.624,0.256-1.282,0.271-1.975c-0.399,0.233-0.876,0.44-1.433,0.621s-1.197,0.271-1.919,0.271
		c-0.813,0-1.495-0.111-2.048-0.333s-0.998-0.524-1.332-0.908c-0.335-0.384-0.576-0.839-0.723-1.365
		c-0.146-0.527-0.22-1.103-0.22-1.728c0-0.646,0.095-1.262,0.282-1.845s0.481-1.097,0.881-1.54c0.398-0.444,0.906-0.798,1.523-1.062
		c0.616-0.263,1.354-0.395,2.211-0.395c0.609,0,1.149,0.077,1.619,0.231c0.471,0.154,0.879,0.376,1.225,0.666
		c0.347,0.289,0.64,0.64,0.881,1.049c0.24,0.41,0.435,0.875,0.581,1.395c0.146,0.519,0.252,1.081,0.315,1.687
		C626.689,205.513,626.722,206.151,626.722,206.821z M624.746,206.606c0-0.963-0.063-1.773-0.191-2.432s-0.316-1.19-0.564-1.597
		s-0.553-0.7-0.914-0.881c-0.361-0.18-0.778-0.271-1.252-0.271c-0.49,0-0.907,0.089-1.253,0.266
		c-0.347,0.177-0.63,0.413-0.853,0.711c-0.222,0.297-0.385,0.634-0.49,1.01s-0.158,0.764-0.158,1.162
		c0,0.444,0.047,0.851,0.141,1.219c0.094,0.369,0.246,0.682,0.457,0.937c0.211,0.256,0.485,0.454,0.824,0.593
		c0.338,0.14,0.756,0.209,1.252,0.209c0.564,0,1.11-0.085,1.637-0.254C623.908,207.109,624.363,206.884,624.746,206.606z"/>
</g>
<rect id="rect105" x="562.658" y="243.716" fill="#9BBB59" width="12.842" height="12.721"/>
<g id="text107" enable-background="new    ">
	<path d="M591.478,255.841c0,0.136-0.01,0.256-0.028,0.361c-0.02,0.105-0.045,0.194-0.079,0.266s-0.079,0.124-0.136,0.158
		s-0.119,0.051-0.187,0.051h-8.077c-0.105,0-0.197-0.013-0.277-0.039c-0.078-0.026-0.146-0.07-0.203-0.131
		c-0.057-0.06-0.098-0.146-0.124-0.26c-0.026-0.112-0.039-0.252-0.039-0.418c0-0.15,0.005-0.282,0.017-0.395
		c0.012-0.113,0.037-0.213,0.076-0.3s0.088-0.173,0.146-0.26c0.059-0.087,0.134-0.179,0.228-0.277l2.922-3.005
		c0.675-0.692,1.217-1.313,1.623-1.863c0.408-0.55,0.723-1.051,0.943-1.503s0.367-0.862,0.437-1.231s0.104-0.715,0.104-1.039
		s-0.055-0.631-0.163-0.921s-0.267-0.544-0.472-0.763c-0.206-0.218-0.465-0.392-0.775-0.52s-0.668-0.191-1.072-0.191
		c-0.475,0-0.899,0.063-1.276,0.191s-0.708,0.268-0.991,0.418c-0.283,0.151-0.521,0.29-0.711,0.418
		c-0.189,0.128-0.332,0.192-0.426,0.192c-0.054,0-0.103-0.015-0.146-0.045c-0.042-0.03-0.077-0.079-0.104-0.147
		c-0.027-0.067-0.049-0.158-0.064-0.271c-0.016-0.113-0.023-0.249-0.023-0.407c0-0.113,0.004-0.211,0.012-0.294
		c0.008-0.082,0.021-0.154,0.039-0.214c0.02-0.061,0.043-0.117,0.074-0.17c0.029-0.053,0.09-0.118,0.18-0.197
		c0.092-0.079,0.247-0.187,0.47-0.322c0.222-0.136,0.501-0.27,0.836-0.401s0.704-0.242,1.106-0.333
		c0.403-0.091,0.827-0.136,1.271-0.136c0.707,0,1.327,0.101,1.858,0.3c0.53,0.199,0.972,0.473,1.321,0.818
		c0.351,0.347,0.612,0.75,0.785,1.209c0.174,0.46,0.26,0.949,0.26,1.469c0,0.467-0.041,0.932-0.124,1.396
		c-0.083,0.463-0.258,0.964-0.525,1.502c-0.267,0.539-0.653,1.138-1.157,1.797c-0.506,0.658-1.176,1.417-2.012,2.276l-2.315,2.417
		h6.36c0.061,0,0.118,0.017,0.175,0.051s0.105,0.085,0.147,0.152c0.041,0.068,0.07,0.152,0.09,0.255
		C591.468,255.587,591.478,255.706,591.478,255.841z"/>
	<path d="M603.689,249.334c0,1.122-0.089,2.146-0.266,3.072c-0.178,0.927-0.471,1.723-0.881,2.39
		c-0.411,0.666-0.947,1.183-1.61,1.548s-1.479,0.548-2.451,0.548c-0.919,0-1.692-0.164-2.321-0.491
		c-0.629-0.328-1.136-0.81-1.52-1.446c-0.385-0.637-0.657-1.42-0.819-2.35c-0.162-0.931-0.243-1.998-0.243-3.203
		c0-1.114,0.091-2.137,0.271-3.067c0.181-0.93,0.475-1.728,0.881-2.395c0.407-0.666,0.941-1.183,1.604-1.548s1.476-0.548,2.44-0.548
		c0.926,0,1.703,0.164,2.332,0.491c0.629,0.328,1.136,0.811,1.52,1.446c0.385,0.637,0.657,1.42,0.819,2.35
		C603.608,247.062,603.689,248.129,603.689,249.334z M601.701,249.47c0-0.73-0.027-1.386-0.079-1.966
		c-0.053-0.58-0.13-1.092-0.231-1.536s-0.234-0.827-0.396-1.147c-0.162-0.319-0.356-0.583-0.582-0.79s-0.483-0.358-0.774-0.452
		c-0.289-0.094-0.615-0.142-0.977-0.142c-0.641,0-1.16,0.151-1.559,0.452c-0.399,0.302-0.714,0.716-0.943,1.243
		c-0.23,0.526-0.387,1.145-0.469,1.853c-0.084,0.708-0.125,1.468-0.125,2.281c0,1.093,0.057,2.021,0.17,2.785
		s0.291,1.388,0.537,1.869c0.244,0.482,0.557,0.833,0.938,1.051c0.38,0.219,0.842,0.328,1.383,0.328
		c0.422,0,0.793-0.068,1.113-0.204c0.32-0.135,0.595-0.329,0.824-0.581c0.23-0.253,0.42-0.556,0.57-0.909
		c0.151-0.354,0.271-0.746,0.362-1.176c0.091-0.429,0.152-0.894,0.187-1.395C601.684,250.534,601.701,250.012,601.701,249.47z"/>
	<path d="M614.963,255.909c0,0.144-0.011,0.264-0.033,0.362c-0.023,0.098-0.053,0.177-0.09,0.236
		c-0.039,0.061-0.082,0.104-0.131,0.131s-0.1,0.039-0.152,0.039h-7.637c-0.053,0-0.102-0.013-0.146-0.039s-0.089-0.07-0.131-0.131
		c-0.041-0.06-0.072-0.139-0.096-0.236c-0.022-0.099-0.033-0.219-0.033-0.362c0-0.135,0.011-0.252,0.033-0.35
		c0.023-0.098,0.051-0.179,0.085-0.243c0.034-0.063,0.075-0.113,0.124-0.146c0.049-0.034,0.104-0.051,0.164-0.051h3.051v-11.116
		l-2.824,1.683c-0.144,0.076-0.259,0.121-0.346,0.136c-0.086,0.016-0.156-0.002-0.209-0.051s-0.088-0.13-0.106-0.243
		c-0.019-0.112-0.028-0.256-0.028-0.429c0-0.128,0.006-0.237,0.017-0.328c0.012-0.09,0.028-0.165,0.051-0.226
		s0.055-0.113,0.097-0.158c0.041-0.045,0.096-0.091,0.164-0.136l3.365-2.157c0.031-0.022,0.068-0.042,0.113-0.057
		s0.102-0.03,0.17-0.045c0.067-0.016,0.146-0.024,0.236-0.028c0.091-0.004,0.204-0.006,0.34-0.006c0.181,0,0.331,0.008,0.451,0.022
		c0.121,0.016,0.215,0.036,0.283,0.063c0.067,0.026,0.113,0.06,0.135,0.102c0.023,0.041,0.034,0.085,0.034,0.13v12.845h2.644
		c0.061,0,0.117,0.017,0.17,0.051c0.053,0.033,0.096,0.083,0.129,0.146c0.035,0.064,0.061,0.146,0.08,0.243
		C614.954,255.657,614.963,255.774,614.963,255.909z"/>
	<path d="M627.142,249.334c0,1.122-0.089,2.146-0.266,3.072c-0.177,0.927-0.471,1.723-0.882,2.39
		c-0.41,0.666-0.947,1.183-1.609,1.548s-1.479,0.548-2.451,0.548c-0.919,0-1.693-0.164-2.322-0.491
		c-0.629-0.328-1.135-0.81-1.519-1.446s-0.657-1.42-0.819-2.35c-0.162-0.931-0.242-1.998-0.242-3.203
		c0-1.114,0.09-2.137,0.271-3.067c0.181-0.93,0.475-1.728,0.882-2.395c0.406-0.666,0.941-1.183,1.604-1.548s1.477-0.548,2.439-0.548
		c0.928,0,1.705,0.164,2.334,0.491c0.629,0.328,1.135,0.811,1.52,1.446c0.383,0.637,0.656,1.42,0.818,2.35
		C627.061,247.062,627.142,248.129,627.142,249.334z M625.153,249.47c0-0.73-0.026-1.386-0.079-1.966s-0.13-1.092-0.232-1.536
		c-0.102-0.444-0.232-0.827-0.395-1.147c-0.162-0.319-0.355-0.583-0.582-0.79s-0.484-0.358-0.773-0.452
		c-0.291-0.094-0.616-0.142-0.978-0.142c-0.64,0-1.159,0.151-1.56,0.452c-0.398,0.302-0.713,0.716-0.943,1.243
		c-0.229,0.526-0.385,1.145-0.469,1.853c-0.082,0.708-0.123,1.468-0.123,2.281c0,1.093,0.056,2.021,0.169,2.785
		c0.112,0.765,0.292,1.388,0.536,1.869c0.245,0.482,0.558,0.833,0.938,1.051c0.381,0.219,0.842,0.328,1.385,0.328
		c0.422,0,0.792-0.068,1.112-0.204c0.319-0.135,0.595-0.329,0.825-0.581c0.229-0.253,0.42-0.556,0.57-0.909
		c0.15-0.354,0.271-0.746,0.361-1.176c0.09-0.429,0.152-0.894,0.186-1.395C625.137,250.534,625.153,250.012,625.153,249.47z"/>
</g>
<rect id="rect109" x="562.658" y="285.597" fill="#8064A2" width="12.842" height="12.84"/>
<g id="text111" enable-background="new    ">
	<path d="M591.467,297.823c0,0.136-0.01,0.256-0.028,0.361s-0.046,0.193-0.079,0.265c-0.033,0.072-0.079,0.124-0.135,0.158
		c-0.057,0.034-0.119,0.051-0.188,0.051h-8.068c-0.105,0-0.197-0.013-0.276-0.039s-0.147-0.07-0.203-0.13
		c-0.057-0.061-0.099-0.147-0.124-0.26c-0.027-0.113-0.039-0.252-0.039-0.418c0-0.15,0.006-0.282,0.018-0.395
		c0.011-0.113,0.036-0.213,0.074-0.299c0.039-0.087,0.088-0.174,0.146-0.26c0.058-0.087,0.133-0.179,0.227-0.276l2.918-3.002
		c0.675-0.692,1.216-1.313,1.623-1.862c0.406-0.549,0.721-1.05,0.941-1.501s0.367-0.861,0.437-1.229
		c0.069-0.369,0.104-0.715,0.104-1.039c0-0.323-0.055-0.63-0.163-0.919c-0.108-0.29-0.266-0.544-0.472-0.762
		c-0.205-0.219-0.464-0.392-0.774-0.52s-0.667-0.192-1.071-0.192c-0.473,0-0.898,0.064-1.275,0.192
		c-0.376,0.128-0.706,0.267-0.989,0.418c-0.283,0.15-0.521,0.289-0.71,0.417c-0.19,0.128-0.332,0.192-0.426,0.192
		c-0.054,0-0.103-0.016-0.145-0.046c-0.043-0.029-0.078-0.079-0.105-0.146s-0.049-0.158-0.064-0.271
		c-0.016-0.113-0.023-0.248-0.023-0.406c0-0.113,0.004-0.211,0.012-0.294c0.008-0.082,0.021-0.154,0.039-0.214
		c0.02-0.061,0.044-0.117,0.074-0.17c0.029-0.052,0.09-0.118,0.18-0.197c0.091-0.079,0.247-0.187,0.469-0.321
		c0.223-0.136,0.5-0.27,0.836-0.4c0.334-0.132,0.703-0.243,1.105-0.333c0.402-0.091,0.826-0.136,1.27-0.136
		c0.707,0,1.326,0.1,1.856,0.299s0.971,0.473,1.32,0.818s0.611,0.749,0.784,1.208c0.174,0.459,0.26,0.947,0.26,1.467
		c0,0.467-0.041,0.931-0.124,1.394s-0.258,0.963-0.524,1.501c-0.268,0.538-0.653,1.136-1.157,1.794
		c-0.504,0.659-1.174,1.417-2.009,2.274l-2.313,2.415h6.354c0.06,0,0.118,0.017,0.175,0.051c0.057,0.033,0.105,0.084,0.146,0.152
		c0.041,0.067,0.072,0.152,0.091,0.254S591.467,297.687,591.467,297.823z"/>
	<path d="M603.666,291.323c0,1.121-0.089,2.144-0.266,3.069c-0.177,0.925-0.471,1.721-0.881,2.387s-0.945,1.182-1.607,1.546
		c-0.662,0.365-1.479,0.548-2.449,0.548c-0.918,0-1.691-0.164-2.318-0.491c-0.629-0.327-1.135-0.809-1.518-1.444
		c-0.385-0.636-0.657-1.418-0.818-2.348c-0.162-0.929-0.243-1.995-0.243-3.199c0-1.113,0.091-2.135,0.271-3.064
		c0.182-0.929,0.475-1.727,0.881-2.392c0.406-0.666,0.939-1.182,1.602-1.547c0.662-0.364,1.475-0.547,2.438-0.547
		c0.925,0,1.702,0.164,2.33,0.491s1.134,0.809,1.519,1.444c0.383,0.636,0.656,1.418,0.817,2.347
		C603.585,289.052,603.666,290.119,603.666,291.323z M601.68,291.458c0-0.729-0.027-1.384-0.079-1.963
		c-0.053-0.58-0.13-1.091-0.231-1.535s-0.233-0.825-0.395-1.146c-0.162-0.319-0.355-0.583-0.582-0.79
		c-0.225-0.207-0.482-0.357-0.772-0.451s-0.615-0.142-0.977-0.142c-0.64,0-1.158,0.151-1.558,0.452
		c-0.398,0.301-0.713,0.715-0.941,1.241c-0.23,0.526-0.387,1.144-0.469,1.851c-0.083,0.707-0.124,1.467-0.124,2.279
		c0,1.091,0.056,2.019,0.169,2.782s0.291,1.386,0.536,1.867s0.557,0.832,0.937,1.05c0.38,0.219,0.841,0.327,1.383,0.327
		c0.422,0,0.791-0.067,1.111-0.203s0.594-0.329,0.824-0.581c0.229-0.252,0.419-0.555,0.57-0.908c0.15-0.354,0.27-0.745,0.36-1.174
		s0.152-0.894,0.187-1.394C601.662,292.521,601.68,292,601.68,291.458z"/>
	<path d="M614.929,297.89c0,0.144-0.011,0.264-0.034,0.361c-0.022,0.098-0.053,0.177-0.09,0.237c-0.038,0.06-0.081,0.104-0.13,0.13
		c-0.05,0.026-0.101,0.039-0.152,0.039h-7.629c-0.053,0-0.102-0.013-0.146-0.039c-0.046-0.026-0.089-0.07-0.13-0.13
		c-0.041-0.061-0.073-0.14-0.096-0.237c-0.023-0.098-0.034-0.218-0.034-0.361c0-0.135,0.011-0.252,0.034-0.35
		c0.022-0.098,0.051-0.179,0.084-0.242c0.034-0.064,0.076-0.113,0.125-0.147c0.049-0.033,0.104-0.051,0.163-0.051h3.047v-11.104
		l-2.821,1.682c-0.143,0.075-0.258,0.12-0.344,0.136c-0.087,0.015-0.156-0.002-0.209-0.051s-0.088-0.13-0.107-0.243
		c-0.019-0.112-0.028-0.256-0.028-0.429c0-0.128,0.006-0.237,0.017-0.327c0.012-0.09,0.029-0.165,0.051-0.226
		c0.023-0.061,0.055-0.113,0.097-0.158c0.041-0.045,0.096-0.09,0.163-0.136l3.363-2.155c0.03-0.022,0.068-0.041,0.113-0.057
		c0.045-0.015,0.102-0.029,0.169-0.045c0.067-0.015,0.146-0.024,0.237-0.028c0.09-0.003,0.203-0.005,0.338-0.005
		c0.181,0,0.331,0.007,0.451,0.022c0.121,0.015,0.215,0.035,0.283,0.062c0.067,0.026,0.112,0.061,0.135,0.102
		c0.022,0.042,0.034,0.085,0.034,0.13V297.1h2.641c0.06,0,0.116,0.018,0.169,0.051c0.053,0.034,0.096,0.083,0.13,0.147
		c0.034,0.063,0.06,0.145,0.079,0.242C614.919,297.638,614.929,297.755,614.929,297.89z"/>
	<path d="M626.643,297.89c0,0.144-0.012,0.264-0.034,0.361s-0.052,0.177-0.09,0.237c-0.038,0.06-0.081,0.104-0.13,0.13
		s-0.1,0.039-0.152,0.039h-7.629c-0.053,0-0.102-0.013-0.146-0.039s-0.089-0.07-0.13-0.13c-0.042-0.061-0.073-0.14-0.097-0.237
		c-0.021-0.098-0.033-0.218-0.033-0.361c0-0.135,0.012-0.252,0.033-0.35c0.023-0.098,0.051-0.179,0.086-0.242
		c0.033-0.064,0.074-0.113,0.123-0.147c0.049-0.033,0.104-0.051,0.164-0.051h3.047v-11.104l-2.821,1.682
		c-0.144,0.075-0.258,0.12-0.345,0.136c-0.086,0.015-0.156-0.002-0.208-0.051c-0.053-0.049-0.089-0.13-0.107-0.243
		c-0.019-0.112-0.028-0.256-0.028-0.429c0-0.128,0.006-0.237,0.018-0.327c0.011-0.09,0.027-0.165,0.051-0.226
		c0.021-0.061,0.055-0.113,0.096-0.158s0.096-0.09,0.164-0.136l3.362-2.155c0.03-0.022,0.067-0.041,0.112-0.057
		c0.046-0.015,0.102-0.029,0.17-0.045c0.068-0.015,0.146-0.024,0.236-0.028c0.091-0.003,0.203-0.005,0.34-0.005
		c0.18,0,0.33,0.007,0.451,0.022c0.119,0.015,0.214,0.035,0.281,0.062c0.068,0.026,0.113,0.061,0.136,0.102
		c0.022,0.042,0.034,0.085,0.034,0.13V297.1h2.641c0.061,0,0.116,0.018,0.169,0.051c0.053,0.034,0.097,0.083,0.13,0.147
		c0.034,0.063,0.061,0.145,0.079,0.242S626.643,297.755,626.643,297.89z"/>
</g>
</svg>
