<?xml version="1.0" encoding="utf-8"?>
<!-- Uploaded to: SVG Repo, www.svgrepo.com, Generator: SVG Repo Mixer Tools -->
<svg width="800px" height="800px" viewBox="0 0 20 20" xmlns="http://www.w3.org/2000/svg">
  <g id="add-user-left-3" transform="translate(-2 -2)">
    <path id="secondary" fill="#2ca9bc" d="M16.84,13.61a6,6,0,0,1-7.68,0A7,7,0,0,0,5,20a1,1,0,0,0,1,1H20a1,1,0,0,0,1-1,7,7,0,0,0-4.16-6.39Z"/>
    <path id="primary" d="M7,5H3M5,3V7" fill="none" stroke="#000000" stroke-linecap="round" stroke-linejoin="round" stroke-width="2"/>
    <path id="primary-2" data-name="primary" d="M11,3.35A5.8,5.8,0,0,1,13,3a6,6,0,1,1-5.65,8" fill="none" stroke="#000000" stroke-linecap="round" stroke-linejoin="round" stroke-width="2"/>
    <path id="primary-3" data-name="primary" d="M9.08,13.64A7,7,0,0,0,5,20a1,1,0,0,0,1,1H20a1,1,0,0,0,1-1,7,7,0,0,0-3.9-6.27" fill="none" stroke="#000000" stroke-linecap="round" stroke-linejoin="round" stroke-width="2"/>
  </g>
</svg>