<?xml version="1.0" encoding="utf-8"?>
<!-- Uploaded to: SVG Repo, www.svgrepo.com, Generator: SVG Repo Mixer Tools -->
<svg width="800px" height="800px" viewBox="0 0 20 20" xmlns="http://www.w3.org/2000/svg">
  <g id="delete-user-square-left" transform="translate(-2 -2)">
    <path id="secondary" fill="#2ca9bc" d="M12,15h0a5,5,0,0,1,5,5v1H7V20a5,5,0,0,1,5-5Z"/>
    <path id="primary" d="M11,7.13A3.66,3.66,0,0,1,12,7a4,4,0,1,1-2.64,7" fill="none" stroke="#000000" stroke-linecap="round" stroke-linejoin="round" stroke-width="2"/>
    <path id="primary-2" data-name="primary" d="M17,20v1H7V20a5,5,0,0,1,5-5h0A5,5,0,0,1,17,20ZM3.5,10.5l3-3m0,3-3-3" fill="none" stroke="#000000" stroke-linecap="round" stroke-linejoin="round" stroke-width="2"/>
    <path id="primary-3" data-name="primary" d="M3,15v5a1,1,0,0,0,1,1H20a1,1,0,0,0,1-1V4a1,1,0,0,0-1-1H5" fill="none" stroke="#000000" stroke-linecap="round" stroke-linejoin="round" stroke-width="2"/>
  </g>
</svg>