<?xml version="1.0" encoding="utf-8"?>
<!-- Uploaded to: SVG Repo, www.svgrepo.com, Generator: SVG Repo Mixer Tools -->
<svg width="800px" height="800px" viewBox="0 -0.05 20.109 20.109" xmlns="http://www.w3.org/2000/svg">
  <g id="edit-user" transform="translate(-2 -2)">
    <circle id="secondary" fill="#2ca9bc" cx="4" cy="4" r="4" transform="translate(7 3)"/>
    <path id="primary" d="M20.71,16.09,15.8,21H13V18.2l4.91-4.91a1,1,0,0,1,1.4,0l1.4,1.4A1,1,0,0,1,20.71,16.09ZM11,3a4,4,0,1,0,4,4A4,4,0,0,0,11,3Z" fill="none" stroke="#000000" stroke-linecap="round" stroke-linejoin="round" stroke-width="2"/>
    <path id="primary-2" data-name="primary" d="M11,15H8a5,5,0,0,0-5,5,1,1,0,0,0,1,1H9" fill="none" stroke="#000000" stroke-linecap="round" stroke-linejoin="round" stroke-width="2"/>
  </g>
</svg>